<?xml version="1.0" standalone="no"?>
<!DOCTYPE svg PUBLIC "-//W3C//DTD SVG 1.1//EN" "http://www.w3.org/Graphics/SVG/1.1/DTD/svg11.dtd" >
<svg xmlns="http://www.w3.org/2000/svg" xmlns:xlink="http://www.w3.org/1999/xlink" version="1.1">
<metadata>
Created by FontForge 20170924 at Sun Jul 14 20:28:24 2013
 By www-data
Copyright (c) 2013 by Mariya Pigoulevskaya. All rights reserved.
</metadata>
<defs>
<font id="Kizo-Light" horiz-adv-x="268" >
  <font-face 
    font-family="Kizo Light"
    font-weight="300"
    font-stretch="condensed"
    units-per-em="1000"
    panose-1="0 0 4 6 0 0 0 0 0 0"
    ascent="750"
    descent="-250"
    x-height="500"
    cap-height="700"
    bbox="0 -262 590 899"
    underline-thickness="50"
    underline-position="-150"
    unicode-range="U+0020-2265"
  />
<missing-glyph horiz-adv-x="500" 
d="M0 0v700h500v-700h-500zM250 395l170 255h-340zM280 350l170 -255v510zM80 50h340l-170 255zM50 605v-510l170 255z" />
    <glyph glyph-name=".notdef" horiz-adv-x="500" 
d="M0 0v700h500v-700h-500zM250 395l170 255h-340zM280 350l170 -255v510zM80 50h340l-170 255zM50 605v-510l170 255z" />
    <glyph glyph-name=".null" horiz-adv-x="0" 
 />
    <glyph glyph-name="nonmarkingreturn" horiz-adv-x="333" 
 />
    <glyph glyph-name="space" unicode=" " horiz-adv-x="250" 
 />
    <glyph glyph-name="exclam" unicode="!" horiz-adv-x="125" 
d="M72 500v-322h-20v523h20v-201zM74 0h-24v42h24v-42z" />
    <glyph glyph-name="quotedbl" unicode="&#x22;" horiz-adv-x="192" 
d="M68 560h-15l-3 140h20zM139 560h-15l-2 140h20z" />
    <glyph glyph-name="numbersign" unicode="#" horiz-adv-x="414" 
d="M283 445h81l-4 -19h-81l-36 -173h81l-4 -19h-81l-50 -234h-18l50 234h-72l-50 -234h-18l50 234h-81l4 19h81l36 173h-80l4 19h81l54 255h18l-54 -255h71l55 255h18zM189 426l-36 -173h72l36 173h-72z" />
    <glyph glyph-name="dollar" unicode="$" horiz-adv-x="321" 
d="M246 554v40q0 55 -16 74.5t-62 19.5h-15q-45 0 -61.5 -19.5t-16.5 -74.5v-42q1 -60 39 -106l118 -138q39 -46 39 -106v-120q0 -88 -101 -88v-43h-20v43q-100 0 -100 88v64h20v-40q0 -38 7.5 -57.5t23.5 -28t47 -8.5h26q45 0 61 19.5t16 74.5v90q0 60 -39 106l-118 138
q-38 46 -39 106v72q0 87 95 88v44h20v-44q96 -1 96 -88v-64h-20z" />
    <glyph glyph-name="percent" unicode="%" horiz-adv-x="469" 
d="M106 706h8q56 0 56 -53v-200q0 -52 -56 -52h-8q-56 0 -56 52v200q0 53 56 53zM76 0h-20l337 700h20zM115 687h-9q-19 0 -27 -10.5t-8 -37.5v-171q0 -18 4 -28.5t11 -15t20 -4.5h9q18 0 26 10.5t8 37.5v171q0 27 -8 37.5t-26 10.5zM354 299h9q56 0 56 -52v-200
q0 -53 -56 -53h-9q-55 0 -55 53v200q0 52 55 52zM363 280h-9q-18 0 -26 -10.5t-8 -37.5v-171q0 -18 3.5 -28.5t11 -15t19.5 -4.5h9q19 0 27 10.5t8 37.5v171q0 27 -8 37.5t-27 10.5z" />
    <glyph glyph-name="ampersand" unicode="&#x26;" horiz-adv-x="345" 
d="M212 682h-59q-31 0 -47.5 -8.5t-23.5 -28.5t-7 -57v-100q0 -53 15 -72.5t57 -20.5h104v179h20v-179h24v-19h-24v-288q0 -88 -98 -88h-25q-98 0 -98 88v219q0 60 47 79q-42 21 -42 78v148q0 88 98 88h59v-18zM251 376h-103q-45 0 -61.5 -19.5t-16.5 -74.5v-170
q0 -46 13 -68.5t53 -25.5h37q46 0 62 19.5t16 74.5v264z" />
    <glyph glyph-name="quotesingle" unicode="'" horiz-adv-x="121" 
d="M68 560h-15l-3 140h20z" />
    <glyph glyph-name="parenleft" unicode="(" horiz-adv-x="198" 
d="M148 732h-2q-44 0 -60 -19.5t-16 -74.5v-666q0 -28 3.5 -45.5t12.5 -28.5t23 -15.5t37 -4.5h2v-18h-2q-96 0 -96 88v714q0 88 96 88h2v-18z" />
    <glyph glyph-name="parenright" unicode=")" horiz-adv-x="198" 
d="M50 750h1q97 0 97 -88v-714q0 -88 -96 -88h-2v18h2q44 0 60 20t16 74v666q0 55 -16 74.5t-60 19.5h-2v18z" />
    <glyph glyph-name="asterisk" unicode="*" horiz-adv-x="393" 
d="M206 579l130 42l6 -18l-130 -42l80 -112l-15 -10l-81 111l-80 -111l-15 10l80 112l-131 42l6 18l131 -42v137h19v-137z" />
    <glyph glyph-name="plus" unicode="+" horiz-adv-x="451" 
d="M236 322h165v-19h-165v-166h-20v166h-166v19h166v166h20v-166z" />
    <glyph glyph-name="comma" unicode="," horiz-adv-x="138" 
d="M65 -42h-15l14 84h24z" />
    <glyph glyph-name="hyphen" unicode="-" horiz-adv-x="301" 
d="M250 260h-200v18h200v-18z" />
    <glyph glyph-name="period" unicode="." horiz-adv-x="125" 
d="M74 0h-24v42h24v-42z" />
    <glyph glyph-name="slash" unicode="/" horiz-adv-x="410" 
d="M71 0h-21l289 700h20z" />
    <glyph glyph-name="zero" unicode="0" horiz-adv-x="307" 
d="M143 671h20q98 0 98 -88v-501q0 -88 -98 -88h-20q-98 0 -98 88v501q0 88 98 88zM163 653h-20q-31 0 -47.5 -8.5t-23.5 -28t-7 -57.5v-453q0 -55 16.5 -74.5t61.5 -19.5h20q46 0 62 19.5t16 74.5v453q0 38 -7 58t-23.5 28t-47.5 8z" />
    <glyph glyph-name="one" unicode="1" horiz-adv-x="158" 
d="M107 0h-20v646h-36v19h56v-665z" />
    <glyph glyph-name="two" unicode="2" horiz-adv-x="312" 
d="M148 671h16q97 0 97 -88v-112q0 -60 -39 -106l-118 -138q-39 -46 -39 -107v-101h201v-19h-221v127q0 60 39 106l118 138q39 46 39 106v82q0 55 -16 74.5t-61 19.5h-16q-31 0 -47 -8t-23.5 -28t-7.5 -58v-39h-20v63q0 88 98 88z" />
    <glyph glyph-name="three" unicode="3" horiz-adv-x="271" 
d="M128 671h15q98 0 97 -88v-141q0 -57 -41 -78q46 -19 46 -79v-203q0 -88 -97 -88h-25q-98 0 -98 88v64h20v-40q0 -55 16.5 -74.5t62.5 -18.5h24q45 0 61 19t16 75v153q0 38 -7 58t-23 28t-47 8h-33v19h34q42 1 56.5 20.5t14.5 72.5v93q0 55 -16 74.5t-61 19.5h-15
q-46 0 -62 -19.5t-16 -74.5v-39h-20v63q0 88 98 88z" />
    <glyph glyph-name="four" unicode="4" horiz-adv-x="296" 
d="M241 665v-465h30v-20h-30v-180h-20v180h-196v20l180 465h36zM220 653l-81 -212l-94 -241h177v454z" />
    <glyph glyph-name="five" unicode="5" horiz-adv-x="312" 
d="M246 646h-161v-249h83q98 0 98 -88v-221q0 -88 -97 -88h-26q-98 0 -98 88v64h20v-40q0 -55 16.5 -74.5t61.5 -18.5h36q39 2 53 21.5t14 71.5v172q0 38 -7 58t-23.5 28t-47.5 8h-103v287h181v-19z" />
    <glyph glyph-name="six" unicode="6" horiz-adv-x="307" 
d="M143 671h20q98 0 98 -88v-63h-20v39q0 55 -16 74.5t-62 19.5h-20q-31 0 -47.5 -8.5t-23.5 -28t-7 -57.5v-180q21 33 77 33h21q98 0 98 -88v-242q0 -88 -98 -88h-22q-98 2 -96 88v501q0 88 98 88zM163 393h-20q-45 0 -61.5 -19t-16.5 -74v-194q0 -55 16.5 -74.5
t61.5 -19.5h20q46 0 62 19.5t16 74.5v194q0 55 -16 74t-62 19z" />
    <glyph glyph-name="seven" unicode="7" horiz-adv-x="266" 
d="M241 647l-186 -647h-20l187 647h-197v18h216v-18z" />
    <glyph glyph-name="eight" unicode="8" horiz-adv-x="271" 
d="M128 672h15q98 0 98 -88v-142q0 -57 -42 -78q47 -19 47 -79v-203q0 -88 -97 -88h-27q-97 0 -97 88v203q0 60 47 80q-42 20 -42 77v142q0 88 98 88zM143 653h-15q-31 0 -47.5 -8t-23.5 -28t-7 -58v-92q0 -54 15 -73.5t57 -20.5h35q37 2 50.5 22t13.5 71v93q0 55 -16 74.5
t-62 19.5zM148 354h-33q-41 -1 -55 -20.5t-14 -72.5v-155q-1 -54 14 -73.5t63 -19.5h24q31 0 47.5 8t24 28t7.5 58v153q0 38 -7 58t-23.5 28t-47.5 8z" />
    <glyph glyph-name="nine" unicode="9" horiz-adv-x="307" 
d="M143 671h24q46 0 70.5 -22t23.5 -66v-501q0 -88 -97 -88h-21q-98 0 -98 88v64h20v-40q0 -55 16.5 -74.5t61.5 -19.5h21q45 0 61 19.5t16 74.5v180q-20 -32 -77 -32h-20q-99 0 -99 87v242q0 88 98 88zM164 653h-21q-45 0 -61.5 -19.5t-16.5 -74.5v-193q0 -56 16.5 -75
t61.5 -19h21q45 0 61 19.5t16 74.5v193q0 38 -7 57.5t-23 28t-47 8.5z" />
    <glyph glyph-name="colon" unicode=":" horiz-adv-x="125" 
d="M74 317h-24v42h24v-42zM74 0h-24v42h24v-42z" />
    <glyph glyph-name="semicolon" unicode=";" horiz-adv-x="138" 
d="M88 317h-24v42h24v-42zM65 -42h-15l14 84h24z" />
    <glyph glyph-name="less" unicode="&#x3c;" horiz-adv-x="351" 
d="M300 520l-237 -179l237 -178v-24l-250 190v25l250 190v-24z" />
    <glyph glyph-name="equal" unicode="=" horiz-adv-x="451" 
d="M401 420h-351v18h351v-18zM401 273h-351v18h351v-18z" />
    <glyph glyph-name="greater" unicode="&#x3e;" horiz-adv-x="351" 
d="M300 354v-25l-250 -190v24l238 178l-238 179v24z" />
    <glyph glyph-name="question" unicode="?" horiz-adv-x="311" 
d="M148 706h16q97 0 97 -88v-77q0 -27 -9 -46l-85 -172q-9 -19 -9 -46v-68h-20v71q0 26 9 45l85 173q9 19 9 46v50q0 55 -16 74.5t-61 19.5h-16q-45 0 -61.5 -19.5t-16.5 -74.5v-40h-20v64q0 88 98 88zM160 0h-24v42h24v-42z" />
    <glyph glyph-name="at" unicode="@" horiz-adv-x="544" 
d="M148 700h247q98 0 98 -88v-445q0 -34 -18 -51t-49 -17h-7q-49 0 -63 39q-17 -39 -76 -39h-15q-45 0 -69.5 21.5t-24.5 66.5v335q0 30 12 50t32.5 29t49.5 9h15q55 0 74 -35l2 29h16v-418q0 -38 10.5 -53t35.5 -15h8q17 0 27 6t15 21t5 41v402q0 55 -16 74.5t-62 19.5
h-247q-46 0 -62 -19.5t-16 -74.5v-476q0 -55 16 -74.5t62 -19.5h259v-18h-259q-98 0 -98 88v524q0 88 98 88zM279 591h-15q-42 0 -57.5 -19t-15.5 -74v-287q0 -55 15.5 -74.5t57.5 -19.5h15q40 0 55.5 17.5t17.5 65.5v308q-1 33 -8.5 51t-22.5 25t-42 7z" />
    <glyph glyph-name="A" unicode="A" horiz-adv-x="276" 
d="M251 0h-18l-36 255h-118l-36 -255h-18l98 700h30zM137 679l-16 -119l-40 -286h113l-39 286l-16 119h-2z" />
    <glyph glyph-name="B" unicode="B" horiz-adv-x="291" 
d="M50 700h113q98 0 98 -88v-148q0 -57 -42 -78q47 -19 47 -79v-219q0 -88 -98 -88h-118v700zM70 682v-288h100q41 1 56 21t15 73v100q0 55 -16 74.5t-62 19.5h-93zM70 376v-358h98q46 0 62 19.5t16 74.5v170q0 55 -16 74.5t-62 19.5h-98z" />
    <glyph glyph-name="C" unicode="C" horiz-adv-x="286" 
d="M143 706h20q98 0 98 -88v-84h-20v60q0 55 -16 74.5t-62 19.5h-20q-31 0 -47.5 -8.5t-23.5 -28.5t-7 -57v-488q0 -55 16.5 -74.5t61.5 -19.5h20q31 0 47.5 8.5t23.5 28t7 57.5v60h20v-84q0 -88 -98 -88h-20q-98 0 -98 88v536q0 88 98 88z" />
    <glyph glyph-name="D" unicode="D" horiz-adv-x="312" 
d="M51 700h117q98 0 98 -88v-524q0 -88 -98 -88h-117v700zM246 112v476q0 55 -16 74.5t-62 19.5h-97v-664h97q46 0 62 19.5t16 74.5z" />
    <glyph glyph-name="E" unicode="E" horiz-adv-x="282" 
d="M70 390h171v-19h-171v-352h186v-19h-206v700h206v-19h-186v-291z" />
    <glyph glyph-name="F" unicode="F" horiz-adv-x="282" 
d="M256 681h-186v-291h171v-19h-171v-371h-20v700h206v-19z" />
    <glyph glyph-name="G" unicode="G" horiz-adv-x="309" 
d="M143 706h20q98 0 98 -88v-84h-20v60q0 55 -16 74.5t-62 19.5h-20q-46 0 -62 -19.5t-16 -74.5v-488q0 -55 16 -74.5t62 -19.5h20q46 0 62 19.5t16 74.5v265h-81v19h101v-308q0 -88 -98 -88h-20q-98 0 -98 88v536q0 88 98 88z" />
    <glyph glyph-name="H" unicode="H" horiz-adv-x="317" 
d="M266 0h-20v371h-176v-371h-20v700h20v-310h176v310h20v-700z" />
    <glyph glyph-name="I" unicode="I" horiz-adv-x="121" 
d="M70 0h-20v700h20v-700z" />
    <glyph glyph-name="J" unicode="J" horiz-adv-x="281" 
d="M231 700v-618q0 -45 -24.5 -66.5t-68.5 -21.5h-20q-44 0 -68.5 21.5t-24.5 66.5v118h20v-94q0 -55 15.5 -74.5t57.5 -19.5h20q42 0 57.5 19.5t15.5 74.5v575h-109v19h129z" />
    <glyph glyph-name="K" unicode="K" horiz-adv-x="292" 
d="M155 371l112 -371h-20l-108 361h-69v-361h-20v700h20v-320h69l103 320h19z" />
    <glyph glyph-name="L" unicode="L" horiz-adv-x="277" 
d="M70 19h181v-19h-201v700h20v-681z" />
    <glyph glyph-name="M" unicode="M" horiz-adv-x="402" 
d="M351 0h-19v671h-2l-113 -671h-35l-113 671h-2v-671h-20v700h35l117 -688h2l116 688h34v-700z" />
    <glyph glyph-name="N" unicode="N" horiz-adv-x="310" 
d="M263 0h-35l-160 682h-1v-682h-20v700h36l159 -682h1v682h20v-700z" />
    <glyph glyph-name="O" unicode="O" horiz-adv-x="307" 
d="M143 706h20q98 0 98 -88v-536q0 -88 -98 -88h-20q-98 0 -98 88v536q0 88 98 88zM163 688h-20q-45 0 -61.5 -19.5t-16.5 -74.5v-488q0 -55 16.5 -74.5t61.5 -19.5h20q31 0 47.5 8.5t23.5 28t7 57.5v488q0 55 -16 74.5t-62 19.5z" />
    <glyph glyph-name="P" unicode="P" horiz-adv-x="312" 
d="M50 700h118q98 0 98 -88v-172q0 -88 -98 -88h-98v-352h-20v700zM70 682v-311h98q46 0 62 19t16 74v124q0 55 -16 74.5t-62 19.5h-98z" />
    <glyph glyph-name="Q" unicode="Q" horiz-adv-x="327" 
d="M143 706h20q98 0 98 -88v-529q0 -48 -29 -70h50v-18h-139q-98 0 -98 88v529q0 88 98 88zM163 688h-20q-31 0 -47.5 -8.5t-23.5 -28.5t-7 -57v-481q0 -55 16.5 -74.5t61.5 -19.5h20q46 0 62 19.5t16 74.5v481q0 55 -16 74.5t-62 19.5z" />
    <glyph glyph-name="R" unicode="R" horiz-adv-x="291" 
d="M50 700h118q98 0 98 -88v-162q0 -59 -44 -79q44 -20 44 -78v-293h-20v269q0 52 -14 71.5t-54 21.5h-108v-362h-20v700zM70 682v-301h109q39 1 53 21t14 72v114q0 38 -7 57.5t-23.5 28t-47.5 8.5h-98z" />
    <glyph glyph-name="S" unicode="S" horiz-adv-x="312" 
d="M148 706h15q98 0 98 -88v-84h-20v60q0 55 -16 74.5t-62 19.5h-15q-45 0 -61.5 -19.5t-16.5 -74.5v-42q1 -60 39 -106l118 -138q39 -46 39 -106v-120q0 -88 -97 -88h-26q-98 0 -98 88v84h20v-60q0 -55 16.5 -74.5t61.5 -19.5h26q45 0 61 19.5t16 74.5v90q0 60 -39 106
l-118 138q-38 46 -39 106v72q0 88 98 88z" />
    <glyph glyph-name="T" unicode="T" horiz-adv-x="256" 
d="M231 681h-93v-681h-20v681h-93v19h206v-19z" />
    <glyph glyph-name="U" unicode="U" horiz-adv-x="314" 
d="M266 700v-618q0 -88 -98 -88h-20q-98 0 -98 88v618h20v-594q0 -55 16.5 -74.5t61.5 -19.5h20q46 0 62 19.5t16 74.5v594h20z" />
    <glyph glyph-name="V" unicode="V" horiz-adv-x="276" 
d="M153 0h-30l-98 700h18l78 -560l16 -119h2l15 119l79 560h18z" />
    <glyph glyph-name="W" unicode="W" horiz-adv-x="463" 
d="M346 0h-31l-42 317l-40 314h-2l-41 -315l-42 -316h-30l-93 700h18l74 -560l15 -117h2l89 677h18l88 -677h2l15 117l74 560h18z" />
    <glyph glyph-name="X" unicode="X" 
d="M151 350l91 -350h-19l-89 343l-90 -343h-19l92 352l-86 348h19l84 -340l84 340h19z" />
    <glyph glyph-name="Y" unicode="Y" horiz-adv-x="266" 
d="M144 264v-264h-21v262l-98 438h18l90 -400l89 400h18z" />
    <glyph glyph-name="Z" unicode="Z" horiz-adv-x="266" 
d="M236 681l-191 -662h196v-19h-216v19l192 662h-187v19h206v-19z" />
    <glyph glyph-name="bracketleft" unicode="[" horiz-adv-x="171" 
d="M121 732h-51v-854h51v-18h-71v890h71v-18z" />
    <glyph glyph-name="backslash" unicode="\" horiz-adv-x="410" 
d="M71 700l288 -700h-20l-289 700h21z" />
    <glyph glyph-name="bracketright" unicode="]" horiz-adv-x="171" 
d="M121 -140h-71v18h51v854h-51v18h71v-890z" />
    <glyph glyph-name="asciicircum" unicode="^" horiz-adv-x="403" 
d="M352 375h-21l-130 267l-130 -267h-21l151 308z" />
    <glyph glyph-name="underscore" unicode="_" horiz-adv-x="401" 
d="M351 -99h-301v18h301v-18z" />
    <glyph glyph-name="grave" unicode="`" horiz-adv-x="138" 
d="M88 618h-15l-23 82h24z" />
    <glyph glyph-name="a" unicode="a" 
d="M125 505h15q44 0 68.5 -21.5t24.5 -66.5v-417h-16l-2 29q-19 -35 -74 -35h-15q-44 0 -69 21.5t-25 66.5v140q0 45 25 66.5t69 21.5h15q52 0 72 -30v113q0 55 -15.5 74.5t-57.5 19.5h-15q-42 0 -57.5 -19.5t-15.5 -74.5v-25h-20v49q0 45 24.5 66.5t68.5 21.5zM141 292h-16
q-42 0 -57.5 -19.5t-15.5 -74.5v-92q0 -55 15.5 -74.5t57.5 -19.5h16q27 0 41.5 7.5t22 25.5t8.5 50v114q-1 33 -8.5 50.5t-22 25t-41.5 7.5z" />
    <glyph glyph-name="b" unicode="b" horiz-adv-x="276" 
d="M60 700v-226q20 31 72 31h15q45 0 69.5 -21.5t24.5 -66.5v-335q0 -45 -24.5 -66.5t-69.5 -21.5h-15q-55 0 -74 35l-2 -29h-16v700h20zM148 487h-15q-40 0 -55.5 -17.5t-17.5 -65.5v-309q2 -48 17.5 -65.5t55.5 -17.5h15q42 0 57.5 19.5t15.5 74.5v287q0 55 -15.5 74.5
t-57.5 19.5z" />
    <glyph glyph-name="c" unicode="c" 
d="M128 505h15q29 0 49.5 -9t32 -29t11.5 -50v-59h-20v35q0 55 -15.5 74.5t-57.5 19.5h-15q-42 0 -57.5 -19.5t-15.5 -74.5v-287q0 -55 15.5 -74.5t57.5 -19.5h15q42 0 57.5 19.5t15.5 74.5v35h20v-59q0 -45 -24.5 -66.5t-68.5 -21.5h-15q-29 0 -49.5 9t-32 29t-11.5 50v335
q0 45 24.5 66.5t68.5 21.5z" />
    <glyph glyph-name="d" unicode="d" horiz-adv-x="276" 
d="M236 0h-16l-2 29q-19 -35 -74 -35h-15q-45 0 -69.5 21.5t-24.5 66.5v335q0 45 24.5 66.5t69.5 21.5h15q52 0 72 -31v226h20v-700zM143 487h-15q-42 0 -57.5 -19.5t-15.5 -74.5v-287q0 -55 15.5 -74.5t57.5 -19.5h15q40 0 55.5 17.5t17.5 65.5v309q-2 48 -17.5 65.5
t-55.5 17.5z" />
    <glyph glyph-name="e" unicode="e" 
d="M128 505h15q44 0 68.5 -21.5t24.5 -66.5v-204h-181v-107q0 -55 15.5 -74.5t57.5 -19.5h15q42 0 57.5 19.5t15.5 74.5v35h20v-59q0 -45 -24.5 -66.5t-68.5 -21.5h-15q-29 0 -49.5 9t-32 29t-11.5 50v335q0 45 24.5 66.5t68.5 21.5zM143 487h-15q-42 0 -57.5 -19.5
t-15.5 -74.5v-162h161v162q0 55 -15.5 74.5t-57.5 19.5z" />
    <glyph glyph-name="f" unicode="f" horiz-adv-x="187" 
d="M166 688h-15q-41 0 -56.5 -19.5t-15.5 -74.5v-94h73v-19h-73v-481h-20v481h-39v19h39v118q0 45 24.5 66.5t68.5 21.5h14v-18z" />
    <glyph glyph-name="g" unicode="g" horiz-adv-x="279" 
d="M128 505h15q21 0 38 -5h66v-21h-31q20 -22 20 -62v-160q0 -45 -24.5 -66.5t-68.5 -21.5h-15q-24 0 -42 6v-17q0 -39 10.5 -53.5t35.5 -14.5h37q20 0 34.5 -7.5t23.5 -23t9 -38.5v-115q0 -35 -18.5 -52t-48.5 -17h-67q-20 0 -34.5 7t-23.5 23t-9 39v126h21v-108
q0 -38 10.5 -53t35.5 -15h67q25 0 35.5 15t10.5 53v78q0 39 -10.5 53.5t-35.5 14.5h-37q-30 0 -48.5 17t-18.5 52v47q-30 22 -30 71v160q0 45 24.5 66.5t68.5 21.5zM143 487h-15q-29 0 -44 -8.5t-22 -28.5t-7 -57v-112q0 -55 15.5 -74.5t57.5 -19.5h15q42 0 57.5 19.5
t15.5 74.5v112q0 55 -15.5 74.5t-57.5 19.5z" />
    <glyph glyph-name="h" unicode="h" horiz-adv-x="281" 
d="M63 700v-226q20 31 72 31h16q44 0 68.5 -21.5t24.5 -66.5v-417h-20v393q0 55 -15.5 74.5t-57.5 19.5h-15q-40 0 -55.5 -17.5t-17.5 -65.5v-404h-20v700h20z" />
    <glyph glyph-name="i" unicode="i" horiz-adv-x="108" 
d="M67 544h-24v42h24v-42zM65 0h-20v500h20v-500z" />
    <glyph glyph-name="j" unicode="j" horiz-adv-x="190" 
d="M150 544h-24v42h24v-42zM148 500v-574q0 -44 -24.5 -66t-68.5 -22h-15v18h15q29 0 44 8.5t22 28.5t7 57v550h20z" />
    <glyph glyph-name="k" unicode="k" horiz-adv-x="255" 
d="M63 284h61l86 216h20l-90 -226l95 -274h-19l-92 266h-61v-266h-20v700h20v-416z" />
    <glyph glyph-name="l" unicode="l" horiz-adv-x="101" 
d="M63 0h-20v700h20v-700z" />
    <glyph glyph-name="m" unicode="m" horiz-adv-x="458" 
d="M313 505h15q44 0 68.5 -21.5t24.5 -66.5v-417h-20v393q0 55 -15.5 74.5t-57.5 19.5h-15q-39 0 -55 -17.5t-17 -64.5v-405h-20v393q0 37 -7 57t-22.5 28.5t-43.5 8.5h-15q-29 0 -44 -8.5t-22 -28.5t-7 -57v-393h-20v500h16l2 -29q19 34 74 34h16q66 0 85 -46q16 46 80 46z
" />
    <glyph glyph-name="n" unicode="n" horiz-adv-x="278" 
d="M132 505h16q44 0 68.5 -21.5t24.5 -66.5v-417h-20v393q0 37 -7 57t-22.5 28.5t-43.5 8.5h-15q-29 0 -44 -8.5t-22 -28.5t-7 -57v-393h-20v500h16l2 -29q19 34 74 34z" />
    <glyph glyph-name="o" unicode="o" horiz-adv-x="271" 
d="M128 505h15q44 0 68.5 -21.5t24.5 -66.5v-335q0 -45 -24.5 -66.5t-68.5 -21.5h-15q-29 0 -49.5 9t-32 29t-11.5 50v335q0 45 24.5 66.5t68.5 21.5zM143 487h-15q-42 0 -57.5 -19.5t-15.5 -74.5v-287q0 -55 15.5 -74.5t57.5 -19.5h15q42 0 57.5 19.5t15.5 74.5v287
q0 55 -15.5 74.5t-57.5 19.5z" />
    <glyph glyph-name="p" unicode="p" horiz-adv-x="279" 
d="M135 506h15q45 0 69.5 -21.5t24.5 -66.5v-335q0 -45 -24.5 -66.5t-69.5 -21.5h-15q-52 0 -72 31v-189h-20v663h16l2 -29q19 35 74 35zM151 488h-15q-40 0 -55.5 -17.5t-17.5 -65.5v-309q2 -48 17.5 -65.5t55.5 -17.5h15q42 0 57.5 19.5t15.5 74.5v287q0 37 -7 57
t-22.5 28.5t-43.5 8.5z" />
    <glyph glyph-name="q" unicode="q" horiz-adv-x="276" 
d="M129 506h15q55 0 74 -35l2 29h16v-663h-20v189q-20 -31 -72 -31h-15q-45 0 -69.5 21.5t-24.5 66.5v335q0 45 24.5 66.5t69.5 21.5zM143 488h-15q-28 0 -43.5 -8.5t-22.5 -28.5t-7 -57v-287q0 -55 15.5 -74.5t57.5 -19.5h15q40 0 55.5 17.5t17.5 65.5v309
q-2 48 -17.5 65.5t-55.5 17.5z" />
    <glyph glyph-name="r" unicode="r" horiz-adv-x="172" 
d="M152 487h-19q-37 0 -55 -21t-18 -73v-393h-20v500h16l3 -33q21 38 73 38h20v-18z" />
    <glyph glyph-name="s" unicode="s" horiz-adv-x="270" 
d="M130 505h10q44 0 68.5 -21.5t24.5 -66.5v-59h-20v35q0 55 -15.5 74.5t-57.5 19.5h-10q-39 0 -56 -16.5t-17 -58.5v-19q0 -36 29 -70l123 -145q29 -35 29 -79v-17q0 -45 -24.5 -66.5t-68.5 -21.5h-20q-29 0 -49.5 9t-32 29t-11.5 50v59h20v-35q0 -55 15.5 -74.5
t57.5 -19.5h20q39 0 56 16.5t17 58.5v19q0 34 -29 68l-123 145q-29 34 -29 79v19q0 45 24.5 66.5t68.5 21.5z" />
    <glyph glyph-name="t" unicode="t" horiz-adv-x="187" 
d="M79 500h73v-19h-73v-375q0 -55 15.5 -74.5t56.5 -19.5h15v-18h-14q-44 0 -68.5 21.5t-24.5 66.5v399h-39v19h39v131h20v-131z" />
    <glyph glyph-name="u" unicode="u" horiz-adv-x="275" 
d="M238 0h-16l-2 29q-19 -34 -74 -34h-15q-29 0 -49.5 9t-32.5 29t-12 50v417h20v-393q0 -55 15.5 -74.5t57.5 -19.5h15q42 0 57.5 19.5t15.5 74.5v393h20v-500z" />
    <glyph glyph-name="v" unicode="v" horiz-adv-x="242" 
d="M137 0h-32l-85 500h18l70 -407l12 -79h2l12 79l70 407h18z" />
    <glyph glyph-name="w" unicode="w" horiz-adv-x="405" 
d="M305 0h-32l-64 398l-5 42h-2l-6 -42l-64 -398h-32l-80 500h18l66 -407l11 -78h2l11 78l66 407h18l65 -407l11 -78h2l12 78l65 407h18z" />
    <glyph glyph-name="x" unicode="x" horiz-adv-x="232" 
d="M132 255l80 -255h-19l-77 244l-77 -244h-19l80 257l-75 243h19l72 -232l72 232h19z" />
    <glyph glyph-name="y" unicode="y" horiz-adv-x="232" 
d="M98 -163h-19l28 163l-87 500h19l77 -449l77 449h19z" />
    <glyph glyph-name="z" unicode="z" horiz-adv-x="241" 
d="M216 482l-176 -463h181v-19h-201v19l176 463h-171v18h191v-18z" />
    <glyph glyph-name="braceleft" unicode="{" horiz-adv-x="275" 
d="M225 732h-3q-44 0 -59.5 -20t-15.5 -74v-255q0 -59 -44 -78q44 -20 44 -79v-254q0 -54 15.5 -74t59.5 -20h3v-18h-3q-95 0 -95 88v254q0 38 -7 57.5t-23 27.5t-47 8v19q45 0 61 19t16 74v255q0 88 95 88h3v-18z" />
    <glyph glyph-name="bar" unicode="|" horiz-adv-x="121" 
d="M70 -60h-20v760h20v-760z" />
    <glyph glyph-name="braceright" unicode="}" horiz-adv-x="275" 
d="M50 750h3q95 0 95 -88v-255q0 -38 6.5 -57.5t23 -27.5t47.5 -8v-19q-45 0 -61 -19t-16 -74v-254q0 -88 -95 -88h-3v18h3q30 0 45.5 8.5t22.5 28.5t7 57v254q0 59 44 78q-44 20 -44 79v255q0 37 -7 56.5t-22.5 28.5t-45.5 9h-3v18z" />
    <glyph glyph-name="asciitilde" unicode="~" horiz-adv-x="397" 
d="M50 265v35q0 27 16 43q9 9 21 12q16 5 39 -5l151 -61q23 -9 37 -3q12 6 12 32v36h21v-35q0 -28 -18 -44q-8 -7 -19 -8q-17 -2 -35 6l-158 63q-26 11 -37 -3q-9 -13 -8 -32v-36h-22z" />
    <glyph glyph-name="exclamdown" unicode="&#xa1;" horiz-adv-x="125" 
d="M74 496h-24v42h24v-42zM72 38v-201h-19v523h19v-322z" />
    <glyph glyph-name="cent" unicode="&#xa2;" horiz-adv-x="301" 
d="M161 601v-96q90 -2 90 -88v-49h-20v25q0 37 -7 57t-22 28.5t-44 8.5h-15q-29 0 -44 -8.5t-22 -28.5t-7 -57v-287q0 -55 15.5 -74.5t57.5 -19.5h15q42 0 57.5 19.5t15.5 74.5v25h20v-49q0 -87 -90 -88v-92h-20v92q-91 1 -91 88v335q0 44 24 66t67 22v96h20z" />
    <glyph glyph-name="sterling" unicode="&#xa3;" horiz-adv-x="346" 
d="M178 706h20q98 0 98 -88v-64h-20v40q0 55 -16 74.5t-62 19.5h-20q-31 0 -47.5 -8.5t-23.5 -28.5t-7 -57v-227h114v-20h-114v-327h175v-20h-225v20h30v327h-30v20h30v251q0 88 98 88z" />
    <glyph glyph-name="yen" unicode="&#xa5;" horiz-adv-x="316" 
d="M200 408h56v-20h-60l-25 -110h85v-21h-87v-257h-21v257h-88v21h85l-25 110h-60v20h56l-66 292h18l90 -400l90 400h18z" />
    <glyph glyph-name="brokenbar" unicode="&#xa6;" horiz-adv-x="121" 
d="M70 380h-20v320h20v-320zM70 -60h-20v320h20v-320z" />
    <glyph glyph-name="section" unicode="&#xa7;" horiz-adv-x="320" 
d="M152 706h10q98 0 98 -88v-64h-20v40q0 55 -16 74.5t-62 19.5h-10q-45 0 -61 -19.5t-16 -74.5l-1 -11q-1 -65 39 -106l118 -120q39 -39 39 -106v-39q0 -52 -34 -73q34 -38 34 -100v-41q0 -88 -97 -88h-25q-98 0 -98 88v64h20v-40q0 -55 16.5 -74.5t61.5 -19.5h25
q45 0 61 19.5t16 74.5v11q0 66 -39 106l-118 120q-39 39 -39 106v39q0 52 34 73q-33 38 -34 100v41q0 88 98 88zM211 351l-110 112q-15 -9 -21 -30t-6 -62q0 -67 39 -106l110 -112q15 9 21 29.5t6 62.5q0 67 -39 106z" />
    <glyph glyph-name="dieresis" unicode="&#xa8;" horiz-adv-x="226" 
d="M75 618h-25v43h25v-43zM175 618h-24v43h24v-43z" />
    <glyph glyph-name="copyright" unicode="&#xa9;" horiz-adv-x="380" 
d="M148 706h83q99 0 99 -89v-237q0 -88 -99 -88h-83q-98 0 -98 88v237q0 89 98 89zM231 687h-83q-45 0 -61 -19t-16 -75v-189q0 -22 2.5 -37.5t7.5 -27t14 -17.5t22 -9t31 -3h83q31 0 47.5 8.5t23.5 28t7 57.5v189q0 56 -16 75t-62 19zM186 654h9q56 0 56 -53v-30h-21v15
q0 14 -2 23.5t-6.5 15t-11 8t-15.5 2.5h-9q-19 0 -27 -11t-8 -38v-175q0 -18 3.5 -28.5t11 -15.5t20.5 -5h9q19 0 27 11t8 38v15h21v-29q0 -54 -56 -54h-9q-56 0 -56 54v204q0 53 56 53z" />
    <glyph glyph-name="guillemotleft" unicode="&#xab;" horiz-adv-x="307" 
d="M146 358l-81 -80l81 -80v-23l-96 92v23l96 92v-24zM257 358l-81 -80l81 -80v-23l-96 92v23l96 92v-24z" />
    <glyph glyph-name="logicalnot" unicode="&#xac;" horiz-adv-x="427" 
d="M376 176h-20v128h-306v18h326v-146z" />
    <glyph glyph-name="registered" unicode="&#xae;" horiz-adv-x="380" 
d="M148 706h83q99 0 99 -89v-237q0 -88 -99 -88h-83q-98 0 -98 88v237q0 89 98 89zM231 687h-83q-45 0 -61 -19t-16 -75v-189q0 -22 2.5 -37.5t7.5 -27t14 -17.5t22 -9t31 -3h83q31 0 47.5 8.5t23.5 28t7 57.5v189q0 56 -16 75t-62 19zM142 654h52q44 0 44 -39v-71
q0 -26 -19 -35q19 -9 19 -35v-131h-21v120q0 34 -18 36h-36v-156h-21v311zM163 635v-117h36q18 2 18 37v49q0 31 -22 31h-32z" />
    <glyph glyph-name="macron" unicode="&#xaf;" horiz-adv-x="301" 
d="M250 618h-200v19h200v-19z" />
    <glyph glyph-name="degree" unicode="&#xb0;" horiz-adv-x="338" 
d="M168 706q50 0 84.5 -34.5t34.5 -83.5q0 -50 -34.5 -84.5t-84.5 -34.5q-48 0 -83 35t-35 84t35 83.5t83 34.5zM168 688q-40 0 -68.5 -29.5t-28.5 -70.5t28.5 -71t68.5 -30q42 0 70.5 30t28.5 71t-28.5 70.5t-70.5 29.5z" />
    <glyph glyph-name="plusminus" unicode="&#xb1;" horiz-adv-x="451" 
d="M236 369h165v-19h-165v-148h-20v148h-166v19h166v148h20v-148zM401 122h-351v18h351v-18z" />
    <glyph glyph-name="acute" unicode="&#xb4;" horiz-adv-x="138" 
d="M65 618h-15l14 82h24z" />
    <glyph glyph-name="paragraph" unicode="&#xb6;" horiz-adv-x="418" 
d="M367 681h-38v-844h-19v844h-90v-844h-19v471h-58q-44 0 -68.5 21.5t-24.5 66.5v216q0 45 24.5 66.5t68.5 21.5h224v-19z" />
    <glyph glyph-name="periodcentered" unicode="&#xb7;" horiz-adv-x="125" 
d="M74 282h-24v42h24v-42z" />
    <glyph glyph-name="cedilla" unicode="&#xb8;" horiz-adv-x="219" 
d="M98 -45h13q55 0 58 -57v-4q0 -20 -8.5 -33.5t-21 -19.5t-28.5 -6h-61v19h61q37 0 37 40v4q-1 22 -10.5 30t-26.5 8h-33v64h20v-45z" />
    <glyph glyph-name="guillemotright" unicode="&#xbb;" horiz-adv-x="307" 
d="M146 290v-23l-96 -92v23l82 80l-82 80v24zM257 290v-23l-96 -92v23l82 80l-82 80v24z" />
    <glyph glyph-name="onequarter" unicode="&#xbc;" horiz-adv-x="415" 
d="M71 0h-21l289 700h20zM109 362h-21v319h-17v19h38v-338zM349 100h16v-18h-16v-82h-21v82h-100v18l84 238h37v-238zM327 327l-11 -37l-67 -190h79z" />
    <glyph glyph-name="onehalf" unicode="&#xbd;" horiz-adv-x="465" 
d="M71 0h-21l289 700h20zM109 362h-21v319h-17v19h38v-338zM348 339h15q49 0 49 -44v-56q0 -30 -19 -53l-59 -69q-20 -23 -20 -53v-45h100v-19h-121v67q0 30 20 53l59 69q19 23 19 53v41q0 20 -6.5 28.5t-21.5 8.5h-15q-15 0 -21.5 -8.5t-6.5 -28.5v-20h-21v32q0 44 49 44z
" />
    <glyph glyph-name="threequarters" unicode="&#xbe;" horiz-adv-x="457" 
d="M102 700h15q49 0 49 -44v-70q0 -28 -21 -38q23 -10 23 -40v-102q1 -44 -48 -44h-21q-49 0 -49 44v32h22v-20q0 -19 6.5 -27.5t21.5 -8.5h19q10 0 16 3.5t9 11.5t3 21v78q0 15 -3 24.5t-9 13t-15 3.5h-22v20h22q25 0 25 41v46q0 20 -7 28.5t-21 8.5h-15q-15 0 -21.5 -8.5
t-6.5 -28.5v-20h-21v32q0 44 49 44zM113 0h-20l288 700h21zM391 100h16v-18h-16v-82h-21v82h-100v18l84 238h37v-238zM369 327l-11 -37l-67 -190h79z" />
    <glyph glyph-name="questiondown" unicode="&#xbf;" horiz-adv-x="311" 
d="M176 500h-25v43h25v-43zM174 334v-71q0 -26 -10 -46l-84 -172q-10 -19 -10 -46v-50q0 -55 16 -74.5t62 -19.5h15q46 0 62 19.5t16 74.5v40h20v-64q0 -88 -98 -88h-15q-98 0 -98 88v77q0 27 10 46l84 172q10 19 10 45v69h20z" />
    <glyph glyph-name="Agrave" unicode="&#xc0;" horiz-adv-x="276" 
d="M157 750h-15l-23 82h24zM251 0h-18l-36 255h-118l-36 -255h-18l98 700h30zM137 679l-16 -119l-40 -286h113l-40 286l-15 119h-2z" />
    <glyph glyph-name="Aacute" unicode="&#xc1;" horiz-adv-x="276" 
d="M134 750h-15l14 82h24zM251 0h-18l-36 255h-118l-36 -255h-18l98 700h30zM137 679l-16 -119l-40 -286h113l-40 286l-15 119h-2z" />
    <glyph glyph-name="Acircumflex" unicode="&#xc2;" horiz-adv-x="276" 
d="M214 750h-25l-51 67l-51 -67h-25l62 82h28zM251 0h-18l-36 255h-118l-36 -255h-18l98 700h30zM137 679l-16 -119l-40 -286h113l-39 286l-16 119h-2z" />
    <glyph glyph-name="Atilde" unicode="&#xc3;" horiz-adv-x="276" 
d="M246 815v-42q0 -29 -26 -36q-22 -5 -48 13l-70 48q-33 23 -45 14q-7 -5 -7 -19v-43h-20v42q0 25 19 34q24 11 55 -10l70 -48q24 -17 38 -17q14 1 14 22v42h20zM251 0h-18l-36 255h-118l-36 -255h-18l98 700h30zM137 679l-16 -119l-40 -286h113l-40 286l-15 119h-2z" />
    <glyph glyph-name="Adieresis" unicode="&#xc4;" horiz-adv-x="276" 
d="M100 750h-24v43h24v-43zM201 750h-25v43h25v-43zM251 0h-18l-36 255h-118l-36 -255h-18l98 700h30zM137 679l-16 -119l-40 -286h113l-39 286l-16 119h-2z" />
    <glyph glyph-name="Aring" unicode="&#xc5;" horiz-adv-x="276" 
d="M125 865h25q51 0 51 -36v-43q0 -36 -51 -36h-25q-50 0 -50 36v43q0 36 50 36zM150 846h-25q-11 0 -16.5 -1.5t-8.5 -6.5t-3.5 -10.5t-0.5 -17.5v-5q0 -22 4.5 -29t24.5 -7h25q20 0 25 7t5 29v5q0 22 -5 29t-25 7zM251 0h-18l-36 255h-118l-36 -255h-18l98 700h30z
M137 679l-16 -119l-40 -286h113l-40 286l-15 119h-2z" />
    <glyph glyph-name="AE" unicode="&#xc6;" horiz-adv-x="371" 
d="M159 390h171v-19h-171v-352h186v-19h-206v255h-60l-36 -255h-18l98 700h222v-19h-186v-291zM139 679h-2l-16 -119l-40 -286h58v405z" />
    <glyph glyph-name="Ccedilla" unicode="&#xc7;" horiz-adv-x="286" 
d="M241 534v60q0 55 -16 74.5t-62 19.5h-20q-46 0 -62 -19.5t-16 -74.5v-488q0 -55 16 -74.5t62 -19.5h20q46 0 62 19.5t16 74.5v60h20v-84q0 -88 -98 -88h-21v-39h12q56 0 58 -57v-4q0 -30 -16 -44.5t-42 -14.5h-60v19h60q38 0 38 40v4q-1 22 -10.5 30t-27.5 8h-33v59
q-76 10 -76 87v536q0 88 98 88h20q98 0 98 -88v-84h-20z" />
    <glyph glyph-name="Egrave" unicode="&#xc8;" horiz-adv-x="282" 
d="M172 750h-14l-23 82h24zM256 681h-186v-291h171v-19h-171v-352h186v-19h-206v700h206v-19z" />
    <glyph glyph-name="Eacute" unicode="&#xc9;" horiz-adv-x="282" 
d="M149 750h-14l13 82h24zM256 681h-186v-291h171v-19h-171v-352h186v-19h-206v700h206v-19z" />
    <glyph glyph-name="Ecircumflex" unicode="&#xca;" horiz-adv-x="282" 
d="M229 750h-24l-52 67l-51 -67h-24l62 82h27zM256 681h-186v-291h171v-19h-171v-352h186v-19h-206v700h206v-19z" />
    <glyph glyph-name="Edieresis" unicode="&#xcb;" horiz-adv-x="282" 
d="M115 750h-24v43h24v-43zM216 750h-24v43h24v-43zM256 681h-186v-291h171v-19h-171v-352h186v-19h-206v700h206v-19z" />
    <glyph glyph-name="Igrave" unicode="&#xcc;" horiz-adv-x="138" 
d="M88 750h-15l-23 82h24zM78 0h-20v700h20v-700z" />
    <glyph glyph-name="Iacute" unicode="&#xcd;" horiz-adv-x="138" 
d="M65 750h-15l14 82h24zM79 0h-20v700h20v-700z" />
    <glyph glyph-name="Icircumflex" unicode="&#xce;" horiz-adv-x="252" 
d="M202 750h-24l-52 67l-51 -67h-25l62 82h28zM136 0h-20v700h20v-700z" />
    <glyph glyph-name="Idieresis" unicode="&#xcf;" horiz-adv-x="226" 
d="M74 750h-24v43h24v-43zM175 750h-24v43h24v-43zM122 0h-20v700h20v-700z" />
    <glyph glyph-name="Eth" unicode="&#xd0;" horiz-adv-x="348" 
d="M87 700h118q98 0 98 -88v-524q0 -88 -98 -88h-118v352h-36v18h36v330zM283 112v476q0 55 -16 74.5t-62 19.5h-98v-312h99v-18h-99v-334h98q46 0 62 19.5t16 74.5z" />
    <glyph glyph-name="Ntilde" unicode="&#xd1;" horiz-adv-x="316" 
d="M268 815v-42q0 -29 -25 -36q-22 -5 -49 13l-70 48q-33 23 -45 14q-7 -5 -7 -19v-43h-20v42q0 25 19 34q24 11 55 -10l70 -48q25 -17 38 -17q14 1 14 22v42h20zM263 0h-35l-160 682h-1v-682h-20v700h35l160 -682h1v682h20v-700z" />
    <glyph glyph-name="Ograve" unicode="&#xd2;" horiz-adv-x="307" 
d="M172 750h-15l-23 82h24zM143 706h20q98 0 98 -88v-536q0 -88 -98 -88h-20q-98 0 -98 88v536q0 88 98 88zM163 688h-20q-46 0 -62 -19.5t-16 -74.5v-488q0 -55 16 -74.5t62 -19.5h20q46 0 62 19.5t16 74.5v488q0 55 -16 74.5t-62 19.5z" />
    <glyph glyph-name="Oacute" unicode="&#xd3;" horiz-adv-x="307" 
d="M149 750h-15l14 82h24zM143 706h20q98 0 98 -88v-536q0 -88 -98 -88h-20q-98 0 -98 88v536q0 88 98 88zM163 688h-20q-45 0 -61.5 -19.5t-16.5 -74.5v-488q0 -55 16.5 -74.5t61.5 -19.5h20q31 0 47.5 8.5t23.5 28t7 57.5v488q0 55 -16 74.5t-62 19.5z" />
    <glyph glyph-name="Ocircumflex" unicode="&#xd4;" horiz-adv-x="307" 
d="M229 750h-24l-52 67l-51 -67h-25l63 82h27zM143 706h20q98 0 98 -88v-536q0 -88 -98 -88h-20q-98 0 -98 88v536q0 88 98 88zM163 688h-20q-45 0 -61.5 -19.5t-16.5 -74.5v-488q0 -55 16.5 -74.5t61.5 -19.5h20q31 0 47.5 8.5t23.5 28t7 57.5v488q0 55 -16 74.5t-62 19.5z
" />
    <glyph glyph-name="Otilde" unicode="&#xd5;" horiz-adv-x="312" 
d="M266 815v-42q0 -29 -25 -36q-22 -5 -49 13l-70 48q-33 23 -45 14q-7 -5 -7 -19v-43h-20v42q0 25 19 34q24 11 55 -10l70 -48q25 -17 38 -17q14 1 14 22v42h20zM143 706h20q98 0 98 -88v-536q0 -88 -98 -88h-20q-98 0 -98 88v536q0 88 98 88zM163 688h-20
q-31 0 -47.5 -8.5t-23.5 -28.5t-7 -57v-488q0 -55 16 -74.5t62 -19.5h20q46 0 62 19.5t16 74.5v488q0 55 -16 74.5t-62 19.5z" />
    <glyph glyph-name="Odieresis" unicode="&#xd6;" horiz-adv-x="307" 
d="M115 750h-24v43h24v-43zM216 750h-24v43h24v-43zM143 706h20q98 0 98 -88v-536q0 -88 -98 -88h-20q-98 0 -98 88v536q0 88 98 88zM163 688h-20q-45 0 -61.5 -19.5t-16.5 -74.5v-488q0 -55 16.5 -74.5t61.5 -19.5h20q46 0 62 19.5t16 74.5v488q0 55 -16 74.5t-62 19.5z
" />
    <glyph glyph-name="multiply" unicode="&#xd7;" horiz-adv-x="362" 
d="M311 430l-117 -117l117 -118l-13 -13l-117 118l-118 -118l-13 13l118 118l-118 117l13 13l118 -117l117 117z" />
    <glyph glyph-name="Oslash" unicode="&#xd8;" horiz-adv-x="306" 
d="M261 700l-10 -35q10 -19 10 -47v-536q0 -88 -98 -88h-20q-48 0 -73 22l-4 -16h-21l10 35q-10 19 -10 47v536q0 88 98 88h20q48 0 73 -22l4 16h21zM65 594v-488q0 -17 2 -30l162 586q-15 26 -66 26h-20q-31 0 -47.5 -8.5t-23.5 -28.5t-7 -57zM241 106v488q0 17 -1 31
l-163 -586q14 -27 66 -27h20q46 0 62 19.5t16 74.5z" />
    <glyph glyph-name="Ugrave" unicode="&#xd9;" horiz-adv-x="314" 
d="M177 750h-14l-23 82h24zM266 700v-618q0 -88 -98 -88h-20q-98 0 -98 88v618h20v-594q0 -55 16.5 -74.5t61.5 -19.5h20q46 0 62 19.5t16 74.5v594h20z" />
    <glyph glyph-name="Uacute" unicode="&#xda;" horiz-adv-x="314" 
d="M154 750h-15l14 82h24zM266 700v-618q0 -88 -98 -88h-20q-98 0 -98 88v618h20v-594q0 -55 16.5 -74.5t61.5 -19.5h20q46 0 62 19.5t16 74.5v594h20z" />
    <glyph glyph-name="Ucircumflex" unicode="&#xdb;" horiz-adv-x="314" 
d="M234 750h-24l-52 67l-51 -67h-25l62 82h28zM266 700v-618q0 -88 -98 -88h-20q-98 0 -98 88v618h20v-594q0 -55 16.5 -74.5t61.5 -19.5h20q46 0 62 19.5t16 74.5v594h20z" />
    <glyph glyph-name="Udieresis" unicode="&#xdc;" horiz-adv-x="314" 
d="M120 750h-24v43h24v-43zM221 750h-24v43h24v-43zM266 700v-618q0 -88 -98 -88h-20q-98 0 -98 88v618h20v-594q0 -55 16.5 -74.5t61.5 -19.5h20q46 0 62 19.5t16 74.5v594h20z" />
    <glyph glyph-name="Yacute" unicode="&#xdd;" horiz-adv-x="266" 
d="M130 750h-14l13 82h24zM144 264v-264h-21v262l-98 438h18l90 -400l89 400h18z" />
    <glyph glyph-name="Thorn" unicode="&#xde;" horiz-adv-x="281" 
d="M70 637h68q98 0 98 -88v-265q0 -88 -98 -88h-68v-196h-20v700h20v-63zM70 618v-404h68q31 0 47.5 8.5t23.5 28.5t7 57v216q0 38 -7 58t-23.5 28t-47.5 8h-68z" />
    <glyph glyph-name="germandbls" unicode="&#xdf;" horiz-adv-x="296" 
d="M148 706h21q97 0 97 -88v-154q0 -57 -42 -78q47 -19 47 -79v-219q0 -88 -97 -88h-71v18h71q45 0 61 19.5t16 74.5v170q0 55 -16 74.5t-61 19.5h-37l1 18h37q41 1 56 21t15 73v106q0 55 -16 74.5t-61 19.5h-21q-45 0 -61.5 -19.5t-16.5 -74.5v-594h-20v618q0 88 98 88z
" />
    <glyph glyph-name="agrave" unicode="&#xe0;" 
d="M154 544h-14l-24 82h25zM125 505h15q44 0 68.5 -21.5t24.5 -66.5v-417h-16l-2 29q-19 -35 -74 -35h-15q-44 0 -69 21.5t-25 66.5v140q0 45 25 66.5t69 21.5h15q52 0 72 -30v113q0 55 -15.5 74.5t-57.5 19.5h-15q-42 0 -57.5 -19.5t-15.5 -74.5v-25h-20v49q0 45 24.5 66.5
t68.5 21.5zM141 292h-16q-42 0 -57.5 -19.5t-15.5 -74.5v-92q0 -55 15.5 -74.5t57.5 -19.5h16q27 0 41.5 7.5t22 25.5t8.5 50v114q-1 33 -8.5 50.5t-22 25t-41.5 7.5z" />
    <glyph glyph-name="aacute" unicode="&#xe1;" 
d="M131 544h-15l14 82h24zM125 505h15q44 0 68.5 -21.5t24.5 -66.5v-417h-16l-2 29q-19 -35 -74 -35h-15q-44 0 -69 21.5t-25 66.5v140q0 45 25 66.5t69 21.5h15q52 0 72 -30v113q0 55 -15.5 74.5t-57.5 19.5h-15q-42 0 -57.5 -19.5t-15.5 -74.5v-25h-20v49q0 45 24.5 66.5
t68.5 21.5zM141 292h-16q-42 0 -57.5 -19.5t-15.5 -74.5v-92q0 -55 15.5 -74.5t57.5 -19.5h16q39 0 55 17.5t17 65.5v114q-1 25 -5 40.5t-12.5 25t-21.5 13.5t-33 4z" />
    <glyph glyph-name="acircumflex" unicode="&#xe2;" 
d="M209 544h-25l-51 68l-51 -68h-25l62 82h28zM125 505h15q44 0 68.5 -21.5t24.5 -66.5v-417h-16l-2 29q-19 -35 -74 -35h-15q-44 0 -69 21.5t-25 66.5v140q0 45 25 66.5t69 21.5h15q52 0 72 -30v113q0 55 -15.5 74.5t-57.5 19.5h-15q-42 0 -57.5 -19.5t-15.5 -74.5v-25h-20
v49q0 45 24.5 66.5t68.5 21.5zM141 292h-16q-42 0 -57.5 -19.5t-15.5 -74.5v-92q0 -55 15.5 -74.5t57.5 -19.5h16q39 0 55 17.5t17 65.5v114q-1 48 -17 65.5t-55 17.5z" />
    <glyph glyph-name="atilde" unicode="&#xe3;" horiz-adv-x="284" 
d="M248 610v-42q0 -30 -25 -36q-22 -6 -49 12l-69 49q-34 23 -46 13q-6 -5 -6 -19v-43h-21v43q0 24 20 33q23 12 54 -10l70 -48q25 -17 38 -16q14 1 14 21v43h20zM133 505h15q21 0 38 -5t29 -16t18.5 -27.5t6.5 -39.5v-417h-15l-3 29q-19 -35 -74 -35h-15q-44 0 -68.5 21.5
t-24.5 66.5v140q0 45 24.5 66.5t68.5 21.5h15q53 0 72 -30v113q0 55 -15.5 74.5t-56.5 19.5h-15q-43 0 -58 -19.5t-15 -74.5v-25h-20v49q0 45 24.5 66.5t68.5 21.5zM148 292h-15q-42 0 -57.5 -19.5t-15.5 -74.5v-92q0 -28 3.5 -45.5t12 -28.5t22 -15.5t35.5 -4.5h15
q40 0 55.5 17.5t16.5 65.5v114q-1 48 -16.5 65.5t-55.5 17.5z" />
    <glyph glyph-name="adieresis" unicode="&#xe4;" 
d="M94 544h-24v43h24v-43zM195 544h-25v43h25v-43zM125 505h15q44 0 68.5 -21.5t24.5 -66.5v-417h-16l-2 29q-19 -35 -74 -35h-15q-44 0 -69 21.5t-25 66.5v140q0 45 25 66.5t69 21.5h15q52 0 72 -30v113q0 55 -15.5 74.5t-57.5 19.5h-15q-42 0 -57.5 -19.5t-15.5 -74.5v-25
h-20v49q0 45 24.5 66.5t68.5 21.5zM141 292h-16q-42 0 -57.5 -19.5t-15.5 -74.5v-92q0 -55 15.5 -74.5t57.5 -19.5h16q39 0 55 17.5t17 65.5v114q-1 25 -5 40.5t-12.5 25t-21.5 13.5t-33 4z" />
    <glyph glyph-name="aring" unicode="&#xe5;" 
d="M121 660h25q51 0 51 -37v-42q0 -37 -51 -37h-25q-50 0 -50 37v42q0 37 50 37zM146 640h-25q-20 0 -24.5 -6.5t-4.5 -29.5v-5q0 -15 1.5 -21.5t7.5 -10t20 -3.5h25q20 0 25 7t5 28v5q0 22 -5 29t-25 7zM125 505h15q44 0 68.5 -21.5t24.5 -66.5v-417h-16l-2 29
q-19 -35 -74 -35h-15q-29 0 -49.5 9t-32.5 29t-12 50v140q0 45 25 66.5t69 21.5h15q52 0 72 -30v113q0 55 -15.5 74.5t-57.5 19.5h-15q-42 0 -57.5 -19.5t-15.5 -74.5v-25h-20v49q0 45 24.5 66.5t68.5 21.5zM141 292h-16q-42 0 -57.5 -19.5t-15.5 -74.5v-92
q0 -55 15.5 -74.5t57.5 -19.5h16q39 0 55 17.5t17 65.5v114q-1 48 -17 65.5t-55 17.5z" />
    <glyph glyph-name="ae" unicode="&#xe6;" horiz-adv-x="446" 
d="M305 505h15q44 0 68.5 -21.5t24.5 -66.5v-204h-180v-107q0 -55 15 -74.5t57 -19.5h15q29 0 44.5 8.5t22 28.5t6.5 57v35h20v-59q0 -45 -24.5 -66.5t-68.5 -21.5h-15q-65 0 -85 46q-7 -14 -15 -22.5t-17.5 -14t-20.5 -7.5t-26 -2h-15q-44 0 -69 21.5t-25 66.5v140
q0 45 25 66.5t69 21.5h15q52 0 72 -30v113q0 55 -15.5 74.5t-57.5 19.5h-15q-42 0 -57.5 -19.5t-15.5 -74.5v-25h-20v49q0 45 24.5 66.5t68.5 21.5h16q60 0 82 -40q21 40 82 40zM320 487h-15q-42 0 -57 -19.5t-15 -74.5v-162h160v162q0 37 -6.5 57t-22 28.5t-44.5 8.5z
M141 292h-16q-42 0 -57.5 -19.5t-15.5 -74.5v-92q0 -55 15.5 -74.5t57.5 -19.5h16q39 0 55 17.5t17 65.5v114q-1 48 -17 65.5t-55 17.5z" />
    <glyph glyph-name="ccedilla" unicode="&#xe7;" 
d="M216 358v35q0 55 -15.5 74.5t-57.5 19.5h-15q-42 0 -57.5 -19.5t-15.5 -74.5v-287q0 -55 15.5 -74.5t57.5 -19.5h15q42 0 57.5 19.5t15.5 74.5v35h20v-59q0 -45 -24.5 -66.5t-68.5 -21.5h-15h-6v-39h12q55 0 58 -57v-4q0 -30 -16 -44.5t-42 -14.5h-60v19h60q38 0 38 40v4
q-1 22 -10.5 30t-27.5 8h-33v60q-66 13 -66 86v335q0 45 24.5 66.5t68.5 21.5h15q29 0 49.5 -9t32 -29t11.5 -50v-59h-20z" />
    <glyph glyph-name="egrave" unicode="&#xe8;" 
d="M155 544h-15l-23 82h24zM128 505h15q44 0 68.5 -21.5t24.5 -66.5v-204h-181v-107q0 -55 15.5 -74.5t57.5 -19.5h15q42 0 57.5 19.5t15.5 74.5v35h20v-59q0 -45 -24.5 -66.5t-68.5 -21.5h-15q-29 0 -49.5 9t-32 29t-11.5 50v335q0 45 24.5 66.5t68.5 21.5zM143 487h-15
q-42 0 -57.5 -19.5t-15.5 -74.5v-162h161v162q0 55 -15.5 74.5t-57.5 19.5z" />
    <glyph glyph-name="eacute" unicode="&#xe9;" 
d="M132 544h-15l14 82h24zM128 505h15q44 0 68.5 -21.5t24.5 -66.5v-204h-181v-107q0 -55 15.5 -74.5t57.5 -19.5h15q42 0 57.5 19.5t15.5 74.5v35h20v-59q0 -45 -24.5 -66.5t-68.5 -21.5h-15q-29 0 -49.5 9t-32 29t-11.5 50v335q0 45 24.5 66.5t68.5 21.5zM143 487h-15
q-42 0 -57.5 -19.5t-15.5 -74.5v-162h161v162q0 55 -15.5 74.5t-57.5 19.5z" />
    <glyph glyph-name="ecircumflex" unicode="&#xea;" 
d="M209 544h-25l-51 68l-51 -68h-25l62 82h28zM128 505h15q44 0 68.5 -21.5t24.5 -66.5v-204h-181v-107q0 -55 15.5 -74.5t57.5 -19.5h15q42 0 57.5 19.5t15.5 74.5v35h20v-59q0 -45 -24.5 -66.5t-68.5 -21.5h-15q-29 0 -49.5 9t-32 29t-11.5 50v335q0 45 24.5 66.5
t68.5 21.5zM143 487h-15q-42 0 -57.5 -19.5t-15.5 -74.5v-162h161v162q0 55 -15.5 74.5t-57.5 19.5z" />
    <glyph glyph-name="edieresis" unicode="&#xeb;" 
d="M94 544h-25v43h25v-43zM194 544h-24v43h24v-43zM128 505h15q44 0 68.5 -21.5t24.5 -66.5v-204h-181v-107q0 -55 15.5 -74.5t57.5 -19.5h15q42 0 57.5 19.5t15.5 74.5v35h20v-59q0 -45 -24.5 -66.5t-68.5 -21.5h-15q-29 0 -49.5 9t-32 29t-11.5 50v335q0 45 24.5 66.5
t68.5 21.5zM143 487h-15q-42 0 -57.5 -19.5t-15.5 -74.5v-162h161v162q0 55 -15.5 74.5t-57.5 19.5z" />
    <glyph glyph-name="igrave" unicode="&#xec;" horiz-adv-x="121" 
d="M81 544h-15l-23 82h24zM76 0h-20v500h20v-500z" />
    <glyph glyph-name="iacute" unicode="&#xed;" horiz-adv-x="121" 
d="M58 544h-15l14 82h24zM68 0h-20v500h20v-500z" />
    <glyph glyph-name="icircumflex" unicode="&#xee;" horiz-adv-x="235" 
d="M195 544h-25l-51 68l-51 -68h-25l62 82h28zM128 0h-21v500h21v-500z" />
    <glyph glyph-name="idieresis" unicode="&#xef;" horiz-adv-x="209" 
d="M67 544h-24v43h24v-43zM168 544h-24v43h24v-43zM117 0h-21v500h21v-500z" />
    <glyph glyph-name="eth" unicode="&#xf0;" horiz-adv-x="292" 
d="M68 700h75q42 0 66 -19l33 19l10 -16l-30 -17q15 -21 14 -55v-530q0 -45 -24.5 -66.5t-68.5 -21.5h-15q-21 0 -38 5t-29.5 15.5t-19 27.5t-6.5 40v335q0 45 24.5 66.5t69.5 21.5h15q51 0 72 -31v114q0 55 -15.5 74.5t-57.5 19.5h-75v18zM143 487h-15q-42 0 -57.5 -19.5
t-15.5 -74.5v-287q0 -55 15.5 -74.5t57.5 -19.5h15q29 0 44 8.5t22 28.5t7 57v287q0 37 -7 57t-22 28.5t-44 8.5z" />
    <glyph glyph-name="ntilde" unicode="&#xf1;" horiz-adv-x="294" 
d="M256 610v-42q0 -30 -25 -36q-22 -6 -49 12l-69 49q-34 23 -46 13q-6 -5 -6 -19v-43h-21v43q0 24 20 33q23 12 54 -10l70 -48q25 -17 38 -16q14 1 14 21v43h20zM148 505h15q44 0 68.5 -21.5t24.5 -66.5v-417h-20v393q0 55 -15.5 74.5t-57.5 19.5h-15q-42 0 -57 -19.5
t-15 -74.5v-393h-20v500h15l3 -29q18 34 74 34z" />
    <glyph glyph-name="ograve" unicode="&#xf2;" horiz-adv-x="271" 
d="M147 544h-15l-23 82h24zM128 505h15q44 0 68.5 -21.5t24.5 -66.5v-335q0 -45 -24.5 -66.5t-68.5 -21.5h-15q-29 0 -49.5 9t-32 29t-11.5 50v335q0 45 24.5 66.5t68.5 21.5zM143 487h-15q-42 0 -57.5 -19.5t-15.5 -74.5v-287q0 -55 15.5 -74.5t57.5 -19.5h15
q42 0 57.5 19.5t15.5 74.5v287q0 55 -15.5 74.5t-57.5 19.5z" />
    <glyph glyph-name="oacute" unicode="&#xf3;" horiz-adv-x="271" 
d="M138 544h-15l14 82h24zM128 505h15q44 0 68.5 -21.5t24.5 -66.5v-335q0 -45 -24.5 -66.5t-68.5 -21.5h-15q-29 0 -49.5 9t-32 29t-11.5 50v335q0 45 24.5 66.5t68.5 21.5zM143 487h-15q-42 0 -57.5 -19.5t-15.5 -74.5v-287q0 -55 15.5 -74.5t57.5 -19.5h15
q42 0 57.5 19.5t15.5 74.5v287q0 55 -15.5 74.5t-57.5 19.5z" />
    <glyph glyph-name="ocircumflex" unicode="&#xf4;" horiz-adv-x="271" 
d="M211 544h-25l-51 68l-51 -68h-25l62 82h28zM128 505h15q44 0 68.5 -21.5t24.5 -66.5v-335q0 -45 -24.5 -66.5t-68.5 -21.5h-15q-29 0 -49.5 9t-32 29t-11.5 50v335q0 45 24.5 66.5t68.5 21.5zM143 487h-15q-42 0 -57.5 -19.5t-15.5 -74.5v-287q0 -55 15.5 -74.5
t57.5 -19.5h15q42 0 57.5 19.5t15.5 74.5v287q0 55 -15.5 74.5t-57.5 19.5z" />
    <glyph glyph-name="otilde" unicode="&#xf5;" horiz-adv-x="287" 
d="M251 610v-42q0 -30 -25 -36q-22 -6 -49 12l-69 49q-34 23 -46 13q-6 -5 -6 -19v-43h-21v43q0 24 20 33q23 12 54 -10l70 -48q25 -17 38 -16q14 1 14 21v43h20zM135 505h15q29 0 49.5 -9t32 -29t11.5 -50v-335q0 -45 -24.5 -66.5t-68.5 -21.5h-15q-44 0 -68 22t-24 66v335
q0 45 24 66.5t68 21.5zM150 487h-15q-28 0 -43.5 -8.5t-22 -28.5t-6.5 -57v-287q0 -55 15 -74.5t57 -19.5h15q42 0 57.5 19.5t15.5 74.5v287q0 37 -7 57t-22 28.5t-44 8.5z" />
    <glyph glyph-name="odieresis" unicode="&#xf6;" horiz-adv-x="271" 
d="M97 544h-24v43h24v-43zM198 544h-25v43h25v-43zM128 505h15q44 0 68.5 -21.5t24.5 -66.5v-335q0 -45 -24.5 -66.5t-68.5 -21.5h-15q-44 0 -68.5 21.5t-24.5 66.5v335q0 45 24.5 66.5t68.5 21.5zM143 487h-15q-42 0 -57.5 -19.5t-15.5 -74.5v-287q0 -55 15.5 -74.5
t57.5 -19.5h15q42 0 57.5 19.5t15.5 74.5v287q0 55 -15.5 74.5t-57.5 19.5z" />
    <glyph glyph-name="divide" unicode="&#xf7;" horiz-adv-x="451" 
d="M239 403h-24v42h24v-42zM400 248h-350v19h350v-19zM239 67h-24v43h24v-43z" />
    <glyph glyph-name="oslash" unicode="&#xf8;" horiz-adv-x="362" 
d="M281 500l-12 -32q12 -20 12 -51v-335q0 -45 -24.5 -66.5t-68.5 -21.5h-15q-42 0 -66 20l-5 -14h-21l12 32q-12 20 -12 50v335q0 44 24.5 66t67.5 22h15q43 0 67 -20l6 15h20zM101 393v-287q0 -26 3 -43l144 402q-15 22 -60 22h-15q-28 0 -43.5 -8.5t-22 -28.5t-6.5 -57z
M261 106v287q0 26 -3 43l-144 -402q15 -22 59 -22h15q43 0 58 19.5t15 74.5z" />
    <glyph glyph-name="ugrave" unicode="&#xf9;" horiz-adv-x="275" 
d="M163 544h-14l-23 82h24zM238 0h-16l-2 29q-19 -34 -74 -34h-15q-45 0 -69.5 21.5t-24.5 66.5v417h20v-393q0 -55 15.5 -74.5t57.5 -19.5h15q42 0 57.5 19.5t15.5 74.5v393h20v-500z" />
    <glyph glyph-name="uacute" unicode="&#xfa;" horiz-adv-x="275" 
d="M140 544h-15l14 82h24zM238 0h-16l-2 29q-19 -34 -74 -34h-15q-29 0 -49.5 9t-32.5 29t-12 50v417h20v-393q0 -55 15.5 -74.5t57.5 -19.5h15q42 0 57.5 19.5t15.5 74.5v393h20v-500z" />
    <glyph glyph-name="ucircumflex" unicode="&#xfb;" horiz-adv-x="275" 
d="M213 544h-25l-51 68l-51 -68h-25l62 82h28zM238 0h-16l-2 29q-19 -34 -74 -34h-15q-29 0 -49.5 9t-32.5 29t-12 50v417h20v-393q0 -55 15.5 -74.5t57.5 -19.5h15q29 0 44 8.5t22 28.5t7 57v393h20v-500z" />
    <glyph glyph-name="udieresis" unicode="&#xfc;" horiz-adv-x="275" 
d="M99 544h-24v43h24v-43zM200 544h-25v43h25v-43zM238 0h-16l-2 29q-19 -34 -74 -34h-15q-45 0 -69.5 21.5t-24.5 66.5v417h20v-393q0 -55 15.5 -74.5t57.5 -19.5h15q42 0 57.5 19.5t15.5 74.5v393h20v-500z" />
    <glyph glyph-name="yacute" unicode="&#xfd;" horiz-adv-x="232" 
d="M111 544h-15l14 82h24zM98 -163h-19l28 163l-87 500h19l77 -449l77 449h19z" />
    <glyph glyph-name="thorn" unicode="&#xfe;" horiz-adv-x="279" 
d="M63 700v-225q20 31 72 31h15q45 0 69.5 -21.5t24.5 -66.5v-335q0 -45 -24.5 -66.5t-69.5 -21.5h-15q-52 0 -72 31v-226h-20v900h20zM151 488h-15q-40 0 -55.5 -17.5t-17.5 -65.5v-309q2 -48 17.5 -65.5t55.5 -17.5h15q42 0 57.5 19.5t15.5 74.5v287q0 55 -15.5 74.5
t-57.5 19.5z" />
    <glyph glyph-name="ydieresis" unicode="&#xff;" horiz-adv-x="232" 
d="M77 544h-24v43h24v-43zM178 544h-25v43h25v-43zM98 -163h-19l28 163l-87 500h19l77 -449l77 449h19z" />
    <glyph glyph-name="Amacron" unicode="&#x100;" horiz-adv-x="276" 
d="M238 750h-200v18h200v-18zM251 0h-18l-36 255h-118l-36 -255h-18l98 700h30zM137 679l-16 -119l-40 -286h113l-39 286l-16 119h-2z" />
    <glyph glyph-name="amacron" unicode="&#x101;" 
d="M232 544h-200v19h200v-19zM125 505h16q43 0 67.5 -21.5t24.5 -66.5v-417h-16l-2 29q-19 -35 -74 -35h-15q-29 0 -49.5 9t-32.5 29t-12 50v140q0 45 25 66.5t69 21.5h15q53 0 72 -30v113q0 55 -15.5 74.5t-57.5 19.5h-15q-42 0 -57.5 -19.5t-15.5 -74.5v-25h-20v49
q0 45 24.5 66.5t68.5 21.5zM141 292h-16q-42 0 -57 -19.5t-15 -74.5v-92q0 -55 15 -74.5t57 -19.5h16q39 0 55 17.5t17 65.5v114q-1 48 -17 65.5t-55 17.5z" />
    <glyph glyph-name="Abreve" unicode="&#x102;" horiz-adv-x="276" 
d="M208 832v-34q0 -22 -16.5 -35t-46.5 -13h-15q-29 0 -45.5 13t-16.5 35v34h20v-10q0 -32 7.5 -42.5t34.5 -10.5h16q27 0 34.5 10.5t7.5 42.5v10h20zM251 0h-18l-36 255h-118l-36 -255h-18l98 700h30zM137 679l-16 -119l-40 -286h113l-39 286l-16 119h-2z" />
    <glyph glyph-name="abreve" unicode="&#x103;" 
d="M201 626v-34q0 -22 -16.5 -35t-45.5 -13h-16q-29 0 -45.5 13t-16.5 35v34h20v-10q0 -31 7.5 -42t34.5 -11h16q27 0 34.5 10.5t7.5 42.5v10h20zM125 505h15q44 0 68.5 -21.5t24.5 -66.5v-417h-16l-2 29q-19 -35 -74 -35h-15q-29 0 -49.5 9t-32.5 29t-12 50v140
q0 45 25 66.5t69 21.5h15q52 0 72 -30v113q0 55 -15.5 74.5t-57.5 19.5h-15q-42 0 -57.5 -19.5t-15.5 -74.5v-25h-20v49q0 45 24.5 66.5t68.5 21.5zM141 292h-16q-42 0 -57.5 -19.5t-15.5 -74.5v-92q0 -55 15.5 -74.5t57.5 -19.5h16q39 0 55 17.5t17 65.5v114
q-1 48 -17 65.5t-55 17.5z" />
    <glyph glyph-name="Aogonek" unicode="&#x104;" horiz-adv-x="308" 
d="M283 -146v-19h-20q-58 0 -77 43q-21 48 29 103l16 19h2l-36 255h-118l-36 -255h-18l98 700h30l98 -700l-19 -23q-50 -65 -23 -102q17 -21 64 -21h10zM194 274l-39 286l-16 119h-2l-16 -119l-40 -286h113z" />
    <glyph glyph-name="aogonek" unicode="&#x105;" horiz-adv-x="300" 
d="M265 -146v-19h-20q-58 0 -77 43q-20 48 29 103l16 19h4l-2 29q-19 -35 -74 -35h-15q-44 0 -69 21.5t-25 66.5v140q0 45 25 66.5t69 21.5h15q52 0 72 -30v113q0 55 -15.5 74.5t-57.5 19.5h-15q-42 0 -57.5 -19.5t-15.5 -74.5v-25h-20v49q0 45 24.5 66.5t68.5 21.5h15
q44 0 68.5 -21.5t24.5 -66.5v-417l-19 -23q-50 -65 -23 -102q17 -21 64 -21h10zM213 95v114q-1 48 -17 65.5t-55 17.5h-16q-42 0 -57.5 -19.5t-15.5 -74.5v-92q0 -55 15.5 -74.5t57.5 -19.5h16q39 0 55 17.5t17 65.5z" />
    <glyph glyph-name="Cacute" unicode="&#x106;" horiz-adv-x="286" 
d="M149 750h-15l14 82h24zM143 706h20q98 0 98 -88v-84h-20v60q0 55 -16 74.5t-62 19.5h-20q-31 0 -47.5 -8.5t-23.5 -28.5t-7 -57v-488q0 -55 16.5 -74.5t61.5 -19.5h20q31 0 47.5 8.5t23.5 28t7 57.5v60h20v-84q0 -88 -98 -88h-20q-98 0 -98 88v536q0 88 98 88z" />
    <glyph glyph-name="cacute" unicode="&#x107;" 
d="M129 544h-15l14 82h24zM128 505h15q29 0 49.5 -9t32 -29t11.5 -50v-59h-20v35q0 55 -15.5 74.5t-57.5 19.5h-15q-42 0 -57.5 -19.5t-15.5 -74.5v-287q0 -55 15.5 -74.5t57.5 -19.5h15q42 0 57.5 19.5t15.5 74.5v35h20v-59q0 -45 -24.5 -66.5t-68.5 -21.5h-15
q-29 0 -49.5 9t-32 29t-11.5 50v335q0 45 24.5 66.5t68.5 21.5z" />
    <glyph glyph-name="Cdotaccent" unicode="&#x10a;" horiz-adv-x="286" 
d="M165 750h-24v43h24v-43zM143 706h20q98 0 98 -88v-84h-20v60q0 55 -16 74.5t-62 19.5h-20q-46 0 -62 -19.5t-16 -74.5v-488q0 -55 16 -74.5t62 -19.5h20q46 0 62 19.5t16 74.5v60h20v-84q0 -88 -98 -88h-20q-98 0 -98 88v536q0 88 98 88z" />
    <glyph glyph-name="cdotaccent" unicode="&#x10b;" 
d="M148 544h-24v43h24v-43zM128 505h15q29 0 49.5 -9t32 -29t11.5 -50v-59h-20v35q0 55 -15.5 74.5t-57.5 19.5h-15q-42 0 -57.5 -19.5t-15.5 -74.5v-287q0 -55 15.5 -74.5t57.5 -19.5h15q42 0 57.5 19.5t15.5 74.5v35h20v-59q0 -45 -24.5 -66.5t-68.5 -21.5h-15
q-29 0 -49.5 9t-32 29t-11.5 50v335q0 45 24.5 66.5t68.5 21.5z" />
    <glyph glyph-name="Ccaron" unicode="&#x10c;" horiz-adv-x="286" 
d="M167 750h-28l-62 82h25l51 -68l52 68h24zM143 706h20q98 0 98 -88v-84h-20v60q0 55 -16 74.5t-62 19.5h-20q-46 0 -62 -19.5t-16 -74.5v-488q0 -55 16 -74.5t62 -19.5h20q46 0 62 19.5t16 74.5v60h20v-84q0 -88 -98 -88h-20q-98 0 -98 88v536q0 88 98 88z" />
    <glyph glyph-name="ccaron" unicode="&#x10d;" 
d="M149 544h-28l-62 82h25l51 -67l51 67h25zM128 505h15q29 0 49.5 -9t32 -29t11.5 -50v-59h-20v35q0 55 -15.5 74.5t-57.5 19.5h-15q-42 0 -57.5 -19.5t-15.5 -74.5v-287q0 -55 15.5 -74.5t57.5 -19.5h15q42 0 57.5 19.5t15.5 74.5v35h20v-59q0 -45 -24.5 -66.5
t-68.5 -21.5h-15q-44 0 -68.5 21.5t-24.5 66.5v335q0 45 24.5 66.5t68.5 21.5z" />
    <glyph glyph-name="Dcaron" unicode="&#x10e;" horiz-adv-x="312" 
d="M172 750h-27l-62 82h24l51 -68l52 68h24zM51 700h117q98 0 98 -88v-524q0 -88 -98 -88h-117v700zM246 112v476q0 55 -16 74.5t-62 19.5h-98v-664h98q46 0 62 19.5t16 74.5z" />
    <glyph glyph-name="dcaron" unicode="&#x10f;" horiz-adv-x="332" 
d="M236 0h-16l-2 29q-19 -35 -74 -35h-15q-45 0 -69.5 21.5t-24.5 66.5v335q0 45 24.5 66.5t69.5 21.5h15q52 0 72 -31v226h20v-700zM269 615h-15l14 85h24zM143 487h-15q-42 0 -57.5 -19.5t-15.5 -74.5v-287q0 -37 7 -57t22.5 -28.5t43.5 -8.5h15q40 0 55.5 17.5t17.5 65.5
v309q-2 48 -17.5 65.5t-55.5 17.5z" />
    <glyph glyph-name="Dcroat" unicode="&#x110;" horiz-adv-x="348" 
d="M87 700h118q98 0 98 -88v-524q0 -88 -98 -88h-118v352h-36v18h36v330zM283 112v476q0 55 -16 74.5t-62 19.5h-98v-312h99v-18h-99v-334h98q46 0 62 19.5t16 74.5z" />
    <glyph glyph-name="dcroat" unicode="&#x111;" horiz-adv-x="320" 
d="M236 637h43v-19h-43v-618h-16l-2 29q-19 -35 -74 -35h-15q-45 0 -69.5 21.5t-24.5 66.5v335q0 45 24.5 66.5t69.5 21.5h15q52 0 72 -31v144h-44v19h44v63h20v-63zM143 487h-15q-42 0 -57.5 -19.5t-15.5 -74.5v-287q0 -37 7 -57t22.5 -28.5t43.5 -8.5h15q40 0 55.5 17.5
t17.5 65.5v309q-2 48 -17.5 65.5t-55.5 17.5z" />
    <glyph glyph-name="Emacron" unicode="&#x112;" horiz-adv-x="282" 
d="M253 819h-200v18h200v-18zM256 681h-186v-291h171v-19h-171v-352h186v-19h-206v700h206v-19z" />
    <glyph glyph-name="emacron" unicode="&#x113;" 
d="M236 544h-200v19h200v-19zM128 505h15q44 0 68.5 -21.5t24.5 -66.5v-204h-181v-107q0 -55 15.5 -74.5t57.5 -19.5h15q42 0 57.5 19.5t15.5 74.5v35h20v-59q0 -45 -24.5 -66.5t-68.5 -21.5h-15q-44 0 -68.5 21.5t-24.5 66.5v335q0 45 24.5 66.5t68.5 21.5zM143 487h-15
q-42 0 -57.5 -19.5t-15.5 -74.5v-162h161v162q0 55 -15.5 74.5t-57.5 19.5z" />
    <glyph glyph-name="Edotaccent" unicode="&#x116;" horiz-adv-x="282" 
d="M165 750h-24v43h24v-43zM256 681h-186v-291h171v-19h-171v-352h186v-19h-206v700h206v-19z" />
    <glyph glyph-name="edotaccent" unicode="&#x117;" 
d="M146 544h-24v43h24v-43zM128 505h15q44 0 68.5 -21.5t24.5 -66.5v-204h-181v-107q0 -55 15.5 -74.5t57.5 -19.5h15q42 0 57.5 19.5t15.5 74.5v35h20v-59q0 -45 -24.5 -66.5t-68.5 -21.5h-15q-29 0 -49.5 9t-32 29t-11.5 50v335q0 45 24.5 66.5t68.5 21.5zM143 487h-15
q-42 0 -57.5 -19.5t-15.5 -74.5v-162h161v162q0 55 -15.5 74.5t-57.5 19.5z" />
    <glyph glyph-name="Eogonek" unicode="&#x118;" horiz-adv-x="314" 
d="M256 681h-186v-291h171v-19h-171v-352h186v-19h-206v700h206v-19zM257 0l-19 -23q-50 -65 -24 -102q17 -21 65 -21h10v-19h-20q-59 0 -77 43q-21 48 29 103l16 19h20z" />
    <glyph glyph-name="eogonek" unicode="&#x119;" 
d="M183 0l-19 -23q-50 -65 -23 -102q17 -21 65 -21h10v-19h-20q-59 0 -77 43q-21 47 29 103l11 14l-16 -1h-15q-44 0 -68.5 21.5t-24.5 66.5v335q0 44 24.5 66t68.5 22h15q44 0 68.5 -21.5t24.5 -66.5v-204h-181v-107q0 -55 15.5 -74.5t57.5 -19.5h15q42 0 57.5 19.5
t15.5 74.5v35h20v-59q0 -65 -53 -82zM55 231h161v162q0 37 -7 57t-22.5 28.5t-43.5 8.5h-15q-42 0 -57.5 -19.5t-15.5 -74.5v-162z" />
    <glyph glyph-name="Ecaron" unicode="&#x11a;" horiz-adv-x="282" 
d="M167 750h-27l-62 82h24l51 -68l52 68h24zM256 681h-186v-291h171v-19h-171v-352h186v-19h-206v700h206v-19z" />
    <glyph glyph-name="ecaron" unicode="&#x11b;" 
d="M150 544h-28l-62 82h25l51 -67l51 67h25zM128 505h15q44 0 68.5 -21.5t24.5 -66.5v-204h-181v-107q0 -55 15.5 -74.5t57.5 -19.5h15q42 0 57.5 19.5t15.5 74.5v35h20v-59q0 -45 -24.5 -66.5t-68.5 -21.5h-15q-29 0 -49.5 9t-32 29t-11.5 50v335q0 45 24.5 66.5t68.5 21.5
zM143 487h-15q-42 0 -57.5 -19.5t-15.5 -74.5v-162h161v162q0 55 -15.5 74.5t-57.5 19.5z" />
    <glyph glyph-name="Gbreve" unicode="&#x11e;" horiz-adv-x="309" 
d="M223 832v-34q0 -22 -17 -35t-46 -13h-16q-29 0 -45.5 13t-16.5 35v34h20v-10q0 -32 7.5 -42.5t34.5 -10.5h16q27 0 34.5 10.5t7.5 42.5v10h21zM143 706h20q98 0 98 -88v-84h-20v60q0 55 -16 74.5t-62 19.5h-20q-31 0 -47.5 -8.5t-23.5 -28.5t-7 -57v-488q0 -55 16 -74.5
t62 -19.5h20q46 0 62 19.5t16 74.5v265h-81v19h101v-308q0 -88 -98 -88h-20q-98 0 -98 88v536q0 88 98 88z" />
    <glyph glyph-name="gbreve" unicode="&#x11f;" horiz-adv-x="279" 
d="M207 626v-34q0 -22 -17 -35t-46 -13h-16q-29 0 -45.5 13t-16.5 35v34h20v-10q0 -31 7.5 -42t34.5 -11h16q19 0 28 5.5t11.5 15.5t2.5 32v10h21zM128 505h15q21 0 38 -5h66v-21h-31q20 -22 20 -62v-160q0 -45 -24.5 -66.5t-68.5 -21.5h-15q-24 0 -42 6v-17q0 -20 2.5 -33
t8.5 -21t14.5 -11t20.5 -3h37q30 0 48.5 -17.5t18.5 -51.5v-115q0 -35 -18.5 -52t-48.5 -17h-67q-30 0 -48.5 17t-18.5 52v126h21v-108q0 -38 10.5 -53t35.5 -15h67q17 0 27 6t14.5 21t4.5 41v78q0 39 -10.5 53.5t-35.5 14.5h-37q-30 0 -48.5 17t-18.5 52v47q-30 22 -30 71
v160q0 45 24.5 66.5t68.5 21.5zM143 487h-15q-42 0 -57.5 -19.5t-15.5 -74.5v-112q0 -55 15.5 -74.5t57.5 -19.5h15q42 0 57.5 19.5t15.5 74.5v112q0 55 -15.5 74.5t-57.5 19.5z" />
    <glyph glyph-name="Gdotaccent" unicode="&#x120;" horiz-adv-x="309" 
d="M165 750h-24v43h24v-43zM143 706h20q98 0 98 -88v-84h-20v60q0 55 -16 74.5t-62 19.5h-20q-46 0 -62 -19.5t-16 -74.5v-488q0 -55 16 -74.5t62 -19.5h20q46 0 62 19.5t16 74.5v265h-81v19h101v-308q0 -88 -98 -88h-20q-98 0 -98 88v536q0 88 98 88z" />
    <glyph glyph-name="gdotaccent" unicode="&#x121;" horiz-adv-x="279" 
d="M147 544h-24v43h24v-43zM128 505h15q21 0 38 -5h66v-21h-31q20 -22 20 -62v-160q0 -45 -24.5 -66.5t-68.5 -21.5h-15q-24 0 -42 6v-17q0 -39 10.5 -53.5t35.5 -14.5h37q20 0 34.5 -7.5t23.5 -23t9 -38.5v-115q0 -35 -18.5 -52t-48.5 -17h-67q-20 0 -34.5 7t-23.5 23
t-9 39v126h21v-108q0 -38 10.5 -53t35.5 -15h67q25 0 35.5 15t10.5 53v78q0 39 -10.5 53.5t-35.5 14.5h-37q-30 0 -48.5 17t-18.5 52v47q-30 22 -30 71v160q0 45 24.5 66.5t68.5 21.5zM143 487h-15q-29 0 -44 -8.5t-22 -28.5t-7 -57v-112q0 -55 15.5 -74.5t57.5 -19.5h15
q42 0 57.5 19.5t15.5 74.5v112q0 55 -15.5 74.5t-57.5 19.5z" />
    <glyph glyph-name="Gcommaaccent" unicode="&#x122;" horiz-adv-x="309" 
d="M143 706h20q98 0 98 -88v-84h-20v60q0 55 -16 74.5t-62 19.5h-20q-46 0 -62 -19.5t-16 -74.5v-488q0 -55 16 -74.5t62 -19.5h20q46 0 62 19.5t16 74.5v265h-81v19h101v-308q0 -88 -98 -88h-20q-98 0 -98 88v536q0 88 98 88zM153 -120h-15l14 82h24z" />
    <glyph glyph-name="gcommaaccent" unicode="&#x123;" horiz-adv-x="279" 
d="M128 505h15q21 0 38 -5h66v-21h-31q20 -22 20 -62v-160q0 -45 -24.5 -66.5t-68.5 -21.5h-15q-24 0 -42 6v-17q0 -39 10.5 -53.5t35.5 -14.5h37q20 0 34.5 -7.5t23.5 -23t9 -38.5v-115q0 -35 -18.5 -52t-48.5 -17h-67q-20 0 -34.5 7t-23.5 23t-9 39v126h21v-108
q0 -38 10.5 -53t35.5 -15h67q25 0 35.5 15t10.5 53v78q0 39 -10.5 53.5t-35.5 14.5h-37q-30 0 -48.5 17t-18.5 52v47q-30 22 -30 71v160q0 45 24.5 66.5t68.5 21.5zM143 487h-15q-29 0 -44 -8.5t-22 -28.5t-7 -57v-112q0 -55 15.5 -74.5t57.5 -19.5h15q42 0 57.5 19.5
t15.5 74.5v112q0 55 -15.5 74.5t-57.5 19.5zM130 -262h-15l14 82h24z" />
    <glyph glyph-name="Hbar" unicode="&#x126;" horiz-adv-x="376" 
d="M325 500h-30v-500h-20v371h-175v-371h-20v500h-30v18h30v182h20v-182h175v182h20v-182h30v-18zM275 500h-175v-110h175v110z" />
    <glyph glyph-name="hbar" unicode="&#x127;" horiz-adv-x="325" 
d="M107 637h44v-18h-44v-144q19 30 72 30h15q44 0 68.5 -21.5t24.5 -66.5v-417h-20v393q0 55 -15.5 74.5t-57.5 19.5h-15q-40 0 -55.5 -17.5t-16.5 -65.5v-404h-20v619h-44v18h44v63h20v-63z" />
    <glyph glyph-name="Imacron" unicode="&#x12a;" horiz-adv-x="301" 
d="M250 750h-200v18h200v-18zM160 0h-20v700h20v-700z" />
    <glyph glyph-name="imacron" unicode="&#x12b;" horiz-adv-x="284" 
d="M243 544h-200v19h200v-19zM154 0h-20v500h20v-500z" />
    <glyph glyph-name="Iogonek" unicode="&#x12e;" horiz-adv-x="203" 
d="M153 -146v-19h-20q-58 0 -77 43q-21 48 29 103l16 19v700h20v-700l-19 -23q-50 -65 -23 -102q17 -21 64 -21h10z" />
    <glyph glyph-name="iogonek" unicode="&#x12f;" horiz-adv-x="186" 
d="M118 544h-24v43h24v-43zM146 -146v-19h-20q-58 0 -77 43q-21 48 29 103l16 19h2v500h20v-500h-2l-19 -23q-50 -65 -23 -102q17 -21 64 -21h10z" />
    <glyph glyph-name="Idotaccent" unicode="&#x130;" horiz-adv-x="125" 
d="M75 750h-25v43h25v-43zM72 0h-20v700h20v-700z" />
    <glyph glyph-name="dotlessi" unicode="&#x131;" horiz-adv-x="104" 
d="M63 0h-20v500h20v-500z" />
    <glyph glyph-name="IJ" unicode="&#x132;" horiz-adv-x="412" 
d="M70 0h-20v700h20v-700zM362 700v-618q0 -30 -11.5 -50t-32 -29t-49.5 -9h-20q-44 0 -68.5 21.5t-24.5 66.5v118h20v-94q0 -55 15.5 -74.5t57.5 -19.5h20q42 0 57.5 19.5t15.5 74.5v575h-109v19h129z" />
    <glyph glyph-name="ij" unicode="&#x133;" horiz-adv-x="238" 
d="M67 544h-24v43h24v-43zM197 544h-24v43h24v-43zM65 0h-20v500h20v-500zM195 500v-574q0 -44 -24.5 -66t-68.5 -22h-14v18h15q28 0 43.5 8.5t22 28.5t6.5 57v550h20z" />
    <glyph glyph-name="Kcommaaccent" unicode="&#x136;" horiz-adv-x="292" 
d="M155 371l112 -371h-20l-108 361h-69v-361h-20v700h20v-320h69l103 320h19zM142 -120h-15l14 82h24z" />
    <glyph glyph-name="kcommaaccent" unicode="&#x137;" horiz-adv-x="255" 
d="M63 284h61l86 216h20l-90 -226l95 -274h-19l-92 266h-61v-266h-20v700h20v-416zM133 -120h-15l14 82h24z" />
    <glyph glyph-name="Lacute" unicode="&#x139;" horiz-adv-x="277" 
d="M127 750h-15l14 82h24zM70 19h181v-19h-201v700h20v-681z" />
    <glyph glyph-name="lacute" unicode="&#x13a;" horiz-adv-x="118" 
d="M58 750h-15l14 82h24zM72 0h-20v700h20v-700z" />
    <glyph glyph-name="Lcommaaccent" unicode="&#x13b;" horiz-adv-x="277" 
d="M70 19h181v-19h-201v700h20v-681zM145 -120h-15l14 82h24z" />
    <glyph glyph-name="lcommaaccent" unicode="&#x13c;" horiz-adv-x="118" 
d="M72 0h-21v700h21v-700zM58 -120h-15l14 82h24z" />
    <glyph glyph-name="Lcaron" unicode="&#x13d;" horiz-adv-x="277" 
d="M70 19h181v-19h-201v700h20v-681zM195 618h-15l14 82h24z" />
    <glyph glyph-name="lcaron" unicode="&#x13e;" horiz-adv-x="165" 
d="M63 0h-20v700h20v-700zM104 618h-14l13 82h24z" />
    <glyph glyph-name="Ldot" unicode="&#x13f;" horiz-adv-x="277" 
d="M70 19h181v-19h-201v700h20v-681zM218 282h-24v42h24v-42z" />
    <glyph glyph-name="ldot" unicode="&#x140;" horiz-adv-x="165" 
d="M63 0h-20v700h20v-700zM128 282h-25v42h25v-42z" />
    <glyph glyph-name="Lslash" unicode="&#x141;" horiz-adv-x="317" 
d="M111 475l43 25v-21l-43 -25v-435h181v-19h-201v442l-41 -23v21l41 23v237h20v-225z" />
    <glyph glyph-name="lslash" unicode="&#x142;" horiz-adv-x="184" 
d="M104 475l43 25v-21l-43 -25v-454h-20v442l-41 -23v21l41 23v237h20v-225z" />
    <glyph glyph-name="Nacute" unicode="&#x143;" horiz-adv-x="310" 
d="M151 750h-15l14 82h24zM263 0h-35l-160 682h-1v-682h-20v700h36l159 -682h1v682h20v-700z" />
    <glyph glyph-name="nacute" unicode="&#x144;" horiz-adv-x="278" 
d="M129 544h-15l14 82h24zM132 505h16q44 0 68.5 -21.5t24.5 -66.5v-417h-20v393q0 55 -15.5 74.5t-57.5 19.5h-15q-29 0 -44 -8.5t-22 -28.5t-7 -57v-393h-20v500h16l2 -29q19 34 74 34z" />
    <glyph glyph-name="Ncommaaccent" unicode="&#x145;" horiz-adv-x="310" 
d="M263 0h-35l-160 682h-1v-682h-20v700h36l159 -682h1v682h20v-700zM151 -120h-15l14 82h24z" />
    <glyph glyph-name="ncommaaccent" unicode="&#x146;" horiz-adv-x="278" 
d="M132 505h16q44 0 68.5 -21.5t24.5 -66.5v-417h-20v393q0 37 -7 57t-22.5 28.5t-43.5 8.5h-15q-29 0 -44 -8.5t-22 -28.5t-7 -57v-393h-20v500h16l2 -29q19 34 74 34zM129 -120h-15l14 82h24z" />
    <glyph glyph-name="Ncaron" unicode="&#x147;" horiz-adv-x="310" 
d="M169 750h-28l-62 82h25l51 -68l51 68h25zM263 0h-35l-160 682h-1v-682h-20v700h36l159 -682h1v682h20v-700z" />
    <glyph glyph-name="ncaron" unicode="&#x148;" horiz-adv-x="278" 
d="M147 544h-28l-62 82h25l51 -67l51 67h25zM132 505h16q44 0 68.5 -21.5t24.5 -66.5v-417h-20v393q0 37 -7 57t-22.5 28.5t-43.5 8.5h-15q-29 0 -44 -8.5t-22 -28.5t-7 -57v-393h-20v500h16l2 -29q19 34 74 34z" />
    <glyph glyph-name="Eng" unicode="&#x14a;" horiz-adv-x="311" 
d="M263 700v-774q0 -44 -24 -66t-68 -22h-16v18h15q38 0 55 14.5t17 52.5v11l-174 748h-1v-682h-20v700h36l159 -682h1v682h20z" />
    <glyph glyph-name="eng" unicode="&#x14b;" horiz-adv-x="278" 
d="M132 505h16q44 0 68.5 -21.5t24.5 -66.5v-491q0 -44 -24.5 -66t-68.5 -22h-15v18h15q42 0 57.5 20t15.5 74v443q0 37 -7 57t-22.5 28.5t-43.5 8.5h-15q-29 0 -44 -8.5t-22 -28.5t-7 -57v-393h-20v500h16l2 -29q19 34 74 34z" />
    <glyph glyph-name="Omacron" unicode="&#x14c;" horiz-adv-x="307" 
d="M253 750h-200v18h200v-18zM143 706h20q98 0 98 -88v-536q0 -88 -98 -88h-20q-98 0 -98 88v536q0 88 98 88zM163 688h-20q-45 0 -61.5 -19.5t-16.5 -74.5v-488q0 -55 16.5 -74.5t61.5 -19.5h20q31 0 47.5 8.5t23.5 28t7 57.5v488q0 55 -16 74.5t-62 19.5z" />
    <glyph glyph-name="omacron" unicode="&#x14d;" horiz-adv-x="272" 
d="M235 544h-200v19h200v-19zM129 505h15q44 0 68.5 -21.5t24.5 -66.5v-335q0 -45 -24.5 -66.5t-68.5 -21.5h-15q-44 0 -68.5 21.5t-24.5 66.5v335q0 45 24.5 66.5t68.5 21.5zM144 487h-15q-29 0 -44 -8.5t-22 -28.5t-7 -57v-287q0 -55 15.5 -74.5t57.5 -19.5h15
q42 0 57.5 19.5t15.5 74.5v287q0 55 -15.5 74.5t-57.5 19.5z" />
    <glyph glyph-name="Ohungarumlaut" unicode="&#x150;" horiz-adv-x="306" 
d="M118 750h-14l13 82h24zM179 750h-14l13 82h24zM143 706h20q98 0 98 -88v-536q0 -88 -98 -88h-20q-98 0 -98 88v536q0 88 98 88zM163 688h-20q-46 0 -62 -19.5t-16 -74.5v-488q0 -55 16 -74.5t62 -19.5h20q46 0 62 19.5t16 74.5v488q0 55 -16 74.5t-62 19.5z" />
    <glyph glyph-name="ohungarumlaut" unicode="&#x151;" horiz-adv-x="271" 
d="M110 544h-14l13 82h24zM171 544h-14l13 82h24zM128 505h15q44 0 68.5 -21.5t24.5 -66.5v-335q0 -45 -24.5 -66.5t-68.5 -21.5h-15q-29 0 -49.5 9t-32 29t-11.5 50v335q0 45 24.5 66.5t68.5 21.5zM143 487h-15q-42 0 -57.5 -19.5t-15.5 -74.5v-287q0 -55 15.5 -74.5
t57.5 -19.5h15q42 0 57.5 19.5t15.5 74.5v287q0 55 -15.5 74.5t-57.5 19.5z" />
    <glyph glyph-name="OE" unicode="&#x152;" horiz-adv-x="472" 
d="M143 706h20q53 0 77 -26v20h207v-19h-186v-291h171v-19h-171v-352h186v-19h-207v20q-24 -26 -77 -26h-20q-98 0 -98 88v536q0 88 98 88zM163 688h-20q-31 0 -47.5 -8.5t-23.5 -28.5t-7 -57v-488q0 -55 16.5 -74.5t61.5 -19.5h20q31 0 47.5 8.5t23.5 28t7 57.5v488
q0 55 -16 74.5t-62 19.5z" />
    <glyph glyph-name="oe" unicode="&#x153;" horiz-adv-x="449" 
d="M308 505h15q44 0 68.5 -21.5t24.5 -66.5v-204h-180v-107q0 -55 15 -74.5t57 -19.5h15q42 0 57.5 19.5t15.5 74.5v35h20v-59q0 -45 -24.5 -66.5t-68.5 -21.5h-15q-61 0 -82 40q-22 -40 -83 -40h-15q-29 0 -49.5 9t-32 29t-11.5 50v335q0 45 24.5 66.5t68.5 21.5h15
q61 0 83 -40q21 40 82 40zM143 487h-15q-42 0 -57.5 -19.5t-15.5 -74.5v-287q0 -55 15.5 -74.5t57.5 -19.5h15q42 0 57.5 19.5t15.5 74.5v287q0 55 -15.5 74.5t-57.5 19.5zM323 487h-15q-42 0 -57 -19.5t-15 -74.5v-162h160v162q0 37 -6.5 57t-22 28.5t-44.5 8.5z" />
    <glyph glyph-name="Racute" unicode="&#x154;" horiz-adv-x="291" 
d="M142 750h-15l14 82h24zM50 700h118q98 0 98 -88v-162q0 -59 -44 -79q44 -20 44 -78v-293h-20v269q0 52 -14 71.5t-54 21.5h-108v-362h-20v700zM70 682v-301h109q20 0 32.5 5t20.5 16t11 28t3 44v114q0 55 -16 74.5t-62 19.5h-98z" />
    <glyph glyph-name="racute" unicode="&#x155;" horiz-adv-x="172" 
d="M71 544h-14l13 82h24zM152 487h-19q-37 0 -55 -21t-18 -73v-393h-20v500h16l3 -33q21 38 73 38h20v-18z" />
    <glyph glyph-name="Rcommaaccent" unicode="&#x156;" horiz-adv-x="291" 
d="M50 700h118q98 0 98 -88v-162q0 -59 -44 -79q44 -20 44 -78v-293h-20v269q0 52 -14 71.5t-54 21.5h-108v-362h-20v700zM70 682v-301h109q20 0 32.5 5t20.5 16t11 28t3 44v114q0 55 -16 74.5t-62 19.5h-98zM142 -120h-15l14 82h24z" />
    <glyph glyph-name="rcommaaccent" unicode="&#x157;" horiz-adv-x="172" 
d="M152 487h-19q-37 0 -55 -21t-18 -73v-393h-20v500h16l3 -33q21 38 73 38h20v-18zM71 -120h-14l13 82h25z" />
    <glyph glyph-name="Rcaron" unicode="&#x158;" horiz-adv-x="291" 
d="M160 750h-28l-62 82h25l51 -68l52 68h24zM50 700h118q98 0 98 -88v-162q0 -59 -44 -79q44 -20 44 -78v-293h-20v269q0 52 -14 71.5t-54 21.5h-108v-362h-20v700zM70 682v-301h109q39 1 53 21t14 72v114q0 38 -7 57.5t-23.5 28t-47.5 8.5h-98z" />
    <glyph glyph-name="rcaron" unicode="&#x159;" horiz-adv-x="213" 
d="M130 544h-28l-62 82h25l51 -67l51 67h25zM193 487h-20q-36 0 -54 -21t-18 -73v-393h-20v500h15l3 -33q21 38 74 38h20v-18z" />
    <glyph glyph-name="Sacute" unicode="&#x15a;" horiz-adv-x="312" 
d="M157 750h-15l14 82h24zM148 706h15q98 0 98 -88v-84h-20v60q0 55 -16 74.5t-62 19.5h-15q-45 0 -61.5 -19.5t-16.5 -74.5v-42q1 -60 39 -106l118 -138q39 -46 39 -106v-120q0 -88 -97 -88h-26q-98 0 -98 88v84h20v-60q0 -55 16.5 -74.5t61.5 -19.5h26q45 0 61 19.5
t16 74.5v90q0 60 -39 106l-118 138q-38 46 -39 106v72q0 88 98 88z" />
    <glyph glyph-name="sacute" unicode="&#x15b;" horiz-adv-x="270" 
d="M131 544h-15l14 82h24zM130 505h10q44 0 68.5 -21.5t24.5 -66.5v-59h-20v35q0 55 -15.5 74.5t-57.5 19.5h-10q-39 0 -56 -16.5t-17 -58.5v-19q0 -36 29 -70l123 -145q29 -35 29 -79v-17q0 -45 -24.5 -66.5t-68.5 -21.5h-20q-29 0 -49.5 9t-32 29t-11.5 50v59h20v-35
q0 -55 15.5 -74.5t57.5 -19.5h20q39 0 56 16.5t17 58.5v19q0 34 -29 68l-123 145q-29 34 -29 79v19q0 45 24.5 66.5t68.5 21.5z" />
    <glyph glyph-name="Scedilla" unicode="&#x15e;" horiz-adv-x="312" 
d="M109 446l118 -138q39 -46 39 -106v-120q0 -88 -97 -88h-19v-39h12q56 0 58 -57v-4q0 -30 -16 -44.5t-42 -14.5h-60v19h60q38 0 38 40v4q-1 22 -10.5 30t-27.5 8h-33v59q-84 6 -84 87v84h20v-60q0 -55 16.5 -74.5t61.5 -19.5h26q45 0 61 19.5t16 74.5v90q0 60 -39 106
l-118 138q-38 46 -39 106v72q0 88 98 88h15q98 0 98 -88v-84h-20v60q0 55 -16 74.5t-62 19.5h-15q-45 0 -61.5 -19.5t-16.5 -74.5v-42q1 -60 39 -106z" />
    <glyph glyph-name="scedilla" unicode="&#x15f;" horiz-adv-x="270" 
d="M86 323l123 -145q29 -35 29 -79v-17q0 -45 -24.5 -66.5t-68.5 -21.5h-21v-39h12q55 0 58 -57v-4q0 -30 -16 -44.5t-42 -14.5h-60v19h60q38 0 38 40v4q-1 22 -10.5 30t-27.5 8h-33v59q-71 11 -71 87v59h20v-35q0 -55 15.5 -74.5t57.5 -19.5h20q39 0 56 16.5t17 58.5v19
q0 34 -29 68l-123 145q-29 34 -29 79v19q0 45 24.5 66.5t68.5 21.5h10q44 0 68.5 -21.5t24.5 -66.5v-59h-20v35q0 55 -15.5 74.5t-57.5 19.5h-10q-39 0 -56 -16.5t-17 -58.5v-19q0 -36 29 -70z" />
    <glyph glyph-name="Scaron" unicode="&#x160;" horiz-adv-x="312" 
d="M168 750h-27l-63 82h25l51 -68l52 68h24zM148 706h15q98 0 98 -88v-84h-20v60q0 55 -16 74.5t-62 19.5h-15q-45 0 -61.5 -19.5t-16.5 -74.5v-42q1 -60 39 -106l118 -138q39 -46 39 -106v-120q0 -88 -97 -88h-26q-98 0 -98 88v84h20v-60q0 -55 16.5 -74.5t61.5 -19.5h26
q45 0 61 19.5t16 74.5v90q0 60 -39 106l-118 138q-38 46 -39 106v72q0 88 98 88z" />
    <glyph glyph-name="scaron" unicode="&#x161;" horiz-adv-x="270" 
d="M149 544h-28l-62 82h25l51 -67l51 67h25zM130 505h10q44 0 68.5 -21.5t24.5 -66.5v-59h-20v35q0 37 -7 57t-22 28.5t-44 8.5h-10q-39 0 -56 -16.5t-17 -58.5v-19q0 -36 29 -70l123 -145q29 -35 29 -79v-17q0 -45 -24.5 -66.5t-68.5 -21.5h-20q-44 0 -68.5 21.5
t-24.5 66.5v59h20v-35q0 -55 15.5 -74.5t57.5 -19.5h20q39 0 56 16.5t17 58.5v19q0 34 -29 68l-123 145q-29 34 -29 79v19q0 45 24.5 66.5t68.5 21.5z" />
    <glyph glyph-name="Tcedilla" unicode="&#x162;" horiz-adv-x="256" 
d="M138 681l1 -681v-45h12q55 0 58 -57v-4q0 -20 -8 -33.5t-20.5 -19.5t-29.5 -6h-60v19h60q37 0 37 40v4q0 22 -9.5 30t-27.5 8h-33v64v681h-93v19h206v-19h-93z" />
    <glyph glyph-name="tcedilla" unicode="&#x163;" horiz-adv-x="187" 
d="M96 -45h12q56 0 58 -57v-4q0 -30 -16 -44.5t-42 -14.5h-60v19h61q37 0 37 40v4q-1 22 -10.5 30t-26.5 8h-34v88q-16 22 -16 58v399h-39v19h39v131h20v-131h73v-19h-73v-375q0 -55 15.5 -74.5t56.5 -19.5h15v-18h-14q-34 0 -56 12v-51z" />
    <glyph glyph-name="Tcaron" unicode="&#x164;" horiz-adv-x="256" 
d="M142 750h-28l-62 82h25l51 -68l51 68h25zM231 681h-93v-681h-20v681h-93v19h206v-19z" />
    <glyph glyph-name="tcaron" unicode="&#x165;" horiz-adv-x="195" 
d="M152 615h-15l14 85h24zM79 500h73v-19h-73v-375q0 -55 15.5 -74.5t56.5 -19.5h15v-18h-14q-44 0 -68.5 21.5t-24.5 66.5v399h-39v19h39v131h20v-131z" />
    <glyph glyph-name="Tbar" unicode="&#x166;" horiz-adv-x="256" 
d="M138 681v-243h90v-18h-90v-420h-20v420h-90v18h90v243h-93v19h206v-19h-93z" />
    <glyph glyph-name="tbar" unicode="&#x167;" horiz-adv-x="187" 
d="M79 500h73v-19h-73v-131h73v-18h-73v-226q0 -55 15.5 -74.5t56.5 -19.5h15v-18h-14q-44 0 -68.5 21.5t-24.5 66.5v250h-39v18h39v131h-39v19h39v131h20v-131z" />
    <glyph glyph-name="Umacron" unicode="&#x16a;" horiz-adv-x="314" 
d="M258 750h-200v18h200v-18zM266 700v-618q0 -88 -98 -88h-20q-98 0 -98 88v618h20v-594q0 -55 16.5 -74.5t61.5 -19.5h20q46 0 62 19.5t16 74.5v594h20z" />
    <glyph glyph-name="umacron" unicode="&#x16b;" horiz-adv-x="275" 
d="M238 544h-200v19h200v-19zM238 0h-16l-2 29q-19 -34 -74 -34h-15q-45 0 -69.5 21.5t-24.5 66.5v417h20v-393q0 -55 15.5 -74.5t57.5 -19.5h15q42 0 57.5 19.5t15.5 74.5v393h20v-500z" />
    <glyph glyph-name="Uring" unicode="&#x16e;" horiz-adv-x="314" 
d="M145 865h25q51 0 51 -36v-43q0 -36 -51 -36h-25q-50 0 -50 36v43q0 36 50 36zM170 846h-25q-11 0 -16.5 -1.5t-8.5 -6.5t-3.5 -10.5t-0.5 -17.5v-5q0 -22 4.5 -29t24.5 -7h25q14 0 20.5 4t8.5 10.5t2 21.5v5q0 15 -2 22t-8.5 10.5t-20.5 3.5zM266 700v-618q0 -88 -98 -88
h-20q-98 0 -98 88v618h20v-594q0 -55 16.5 -74.5t61.5 -19.5h20q46 0 62 19.5t16 74.5v594h20z" />
    <glyph glyph-name="uring" unicode="&#x16f;" horiz-adv-x="275" 
d="M122 660h25q51 0 51 -37v-42q0 -37 -51 -37h-25q-50 0 -50 37v42q0 37 50 37zM147 640h-25q-20 0 -24.5 -6.5t-4.5 -29.5v-5q0 -22 4.5 -28.5t24.5 -6.5h25q20 0 25 7t5 28v5q0 22 -5 29t-25 7zM238 0h-16l-2 29q-19 -34 -74 -34h-15q-45 0 -69.5 21.5t-24.5 66.5v417h20
v-393q0 -55 15.5 -74.5t57.5 -19.5h15q42 0 57.5 19.5t15.5 74.5v393h20v-500z" />
    <glyph glyph-name="Uhungarumlaut" unicode="&#x170;" horiz-adv-x="313" 
d="M123 750h-14l13 82h24zM184 750h-14l13 82h24zM266 700v-618q0 -88 -98 -88h-20q-98 0 -98 88v618h20v-594q0 -55 16.5 -74.5t61.5 -19.5h20q46 0 62 19.5t16 74.5v594h20z" />
    <glyph glyph-name="uhungarumlaut" unicode="&#x171;" horiz-adv-x="275" 
d="M107 544h-14l13 82h24zM168 544h-14l13 82h25zM238 0h-16l-2 29q-19 -34 -74 -34h-15q-45 0 -69.5 21.5t-24.5 66.5v417h20v-393q0 -55 15.5 -74.5t57.5 -19.5h15q42 0 57.5 19.5t15.5 74.5v393h20v-500z" />
    <glyph glyph-name="Uogonek" unicode="&#x172;" horiz-adv-x="314" 
d="M266 700v-618q0 -65 -54 -82l-19 -23q-49 -65 -23 -102q17 -21 65 -21h10v-19h-20q-59 0 -77 43q-21 48 29 103l12 14q-10 -1 -21 -1h-20q-98 0 -98 88v618h20v-594q0 -55 16.5 -74.5t61.5 -19.5h20q46 0 62 19.5t16 74.5v594h20z" />
    <glyph glyph-name="uogonek" unicode="&#x173;" horiz-adv-x="307" 
d="M270 -146v-19h-20q-58 0 -77 43q-20 48 29 103l16 19h4l-2 29q-19 -34 -74 -34h-15q-45 0 -69.5 21.5t-24.5 66.5v417h20v-393q0 -55 15.5 -74.5t57.5 -19.5h15q42 0 57.5 19.5t15.5 74.5v393h20v-500l-19 -23q-50 -65 -23 -102q17 -21 64 -21h10z" />
    <glyph glyph-name="Wcircumflex" unicode="&#x174;" horiz-adv-x="463" 
d="M305 750h-24l-52 67l-51 -67h-25l62 82h28zM346 0h-31l-42 317l-40 314h-2l-41 -315l-42 -316h-30l-93 700h18l74 -560l15 -117h2l89 677h18l88 -677h2l15 117l74 560h18z" />
    <glyph glyph-name="wcircumflex" unicode="&#x175;" horiz-adv-x="405" 
d="M279 544h-25l-51 68l-51 -68h-25l62 82h28zM305 0h-32l-64 398l-5 42h-2l-6 -42l-64 -398h-32l-80 500h18l66 -407l11 -78h2l11 78l66 407h18l65 -407l11 -78h2l12 78l65 407h18z" />
    <glyph glyph-name="Ycircumflex" unicode="&#x176;" horiz-adv-x="266" 
d="M210 750h-24l-52 67l-51 -67h-24l62 82h27zM144 264v-264h-21v262l-98 438h18l90 -400l89 400h18z" />
    <glyph glyph-name="ycircumflex" unicode="&#x177;" horiz-adv-x="232" 
d="M192 544h-25l-51 68l-51 -68h-25l62 82h28zM98 -163h-19l28 163l-87 500h19l77 -449l77 449h19z" />
    <glyph glyph-name="Ydieresis" unicode="&#x178;" horiz-adv-x="266" 
d="M96 750h-24v43h24v-43zM197 750h-24v43h24v-43zM144 264v-264h-21v262l-98 438h18l90 -400l89 400h18z" />
    <glyph glyph-name="Zacute" unicode="&#x179;" horiz-adv-x="266" 
d="M129 750h-15l14 82h24zM236 681l-191 -662h196v-19h-216v19l192 662h-187v19h206v-19z" />
    <glyph glyph-name="zacute" unicode="&#x17a;" horiz-adv-x="241" 
d="M108 544h-14l13 82h24zM216 482l-176 -463h181v-19h-201v19l176 463h-171v18h191v-18z" />
    <glyph glyph-name="Zdotaccent" unicode="&#x17b;" horiz-adv-x="266" 
d="M145 750h-24v43h24v-43zM236 681l-191 -662h196v-19h-216v19l192 662h-187v19h206v-19z" />
    <glyph glyph-name="zdotaccent" unicode="&#x17c;" horiz-adv-x="241" 
d="M131 544h-24v43h24v-43zM216 482l-176 -463h181v-19h-201v19l176 463h-171v18h191v-18z" />
    <glyph glyph-name="Zcaron" unicode="&#x17d;" horiz-adv-x="266" 
d="M147 750h-28l-62 82h25l51 -68l51 68h25zM236 681l-191 -662h196v-19h-216v19l192 662h-187v19h206v-19z" />
    <glyph glyph-name="zcaron" unicode="&#x17e;" horiz-adv-x="241" 
d="M133 544h-28l-62 82h25l51 -67l51 67h25zM216 482l-176 -463h181v-19h-201v19l176 463h-171v18h191v-18z" />
    <glyph glyph-name="Acaron" unicode="&#x1cd;" horiz-adv-x="276" 
d="M152 750h-28l-62 82h25l51 -68l51 68h25zM251 0h-18l-36 255h-118l-36 -255h-18l98 700h30zM137 679l-16 -119l-40 -286h113l-39 286l-16 119h-2z" />
    <glyph glyph-name="acaron" unicode="&#x1ce;" 
d="M148 544h-28l-62 82h25l51 -67l51 67h25zM125 505h15q44 0 68.5 -21.5t24.5 -66.5v-417h-16l-2 29q-19 -35 -74 -35h-15q-44 0 -69 21.5t-25 66.5v140q0 45 25 66.5t69 21.5h15q52 0 72 -30v113q0 55 -15.5 74.5t-57.5 19.5h-15q-42 0 -57.5 -19.5t-15.5 -74.5v-25h-20
v49q0 45 24.5 66.5t68.5 21.5zM141 292h-16q-42 0 -57.5 -19.5t-15.5 -74.5v-92q0 -55 15.5 -74.5t57.5 -19.5h16q27 0 41.5 7.5t22 25.5t8.5 50v114q-1 48 -17 65.5t-55 17.5z" />
    <glyph glyph-name="Icaron" unicode="&#x1cf;" horiz-adv-x="252" 
d="M140 750h-28l-62 82h25l51 -68l52 68h24zM136 0h-20v700h20v-700z" />
    <glyph glyph-name="icaron" unicode="&#x1d0;" horiz-adv-x="235" 
d="M133 544h-28l-62 82h25l51 -67l51 67h25zM128 0h-21v500h21v-500z" />
    <glyph glyph-name="Ocaron" unicode="&#x1d1;" horiz-adv-x="307" 
d="M167 750h-28l-62 82h25l51 -68l52 68h24zM143 706h20q98 0 98 -88v-536q0 -88 -98 -88h-20q-98 0 -98 88v536q0 88 98 88zM163 688h-20q-46 0 -62 -19.5t-16 -74.5v-488q0 -55 16 -74.5t62 -19.5h20q46 0 62 19.5t16 74.5v488q0 55 -16 74.5t-62 19.5z" />
    <glyph glyph-name="ocaron" unicode="&#x1d2;" horiz-adv-x="271" 
d="M149 544h-28l-62 82h25l51 -67l51 67h25zM128 505h15q44 0 68.5 -21.5t24.5 -66.5v-335q0 -45 -24.5 -66.5t-68.5 -21.5h-15q-44 0 -68.5 21.5t-24.5 66.5v335q0 45 24.5 66.5t68.5 21.5zM143 487h-15q-42 0 -57.5 -19.5t-15.5 -74.5v-287q0 -55 15.5 -74.5t57.5 -19.5
h15q42 0 57.5 19.5t15.5 74.5v287q0 55 -15.5 74.5t-57.5 19.5z" />
    <glyph glyph-name="Ucaron" unicode="&#x1d3;" horiz-adv-x="314" 
d="M172 750h-28l-62 82h25l51 -68l52 68h24zM266 700v-618q0 -88 -98 -88h-20q-98 0 -98 88v618h20v-594q0 -55 16.5 -74.5t61.5 -19.5h20q46 0 62 19.5t16 74.5v594h20z" />
    <glyph glyph-name="ucaron" unicode="&#x1d4;" horiz-adv-x="275" 
d="M151 544h-28l-62 82h25l51 -67l51 67h25zM238 0h-16l-2 29q-19 -34 -74 -34h-15q-45 0 -69.5 21.5t-24.5 66.5v417h20v-393q0 -55 15.5 -74.5t57.5 -19.5h15q42 0 57.5 19.5t15.5 74.5v393h20v-500z" />
    <glyph glyph-name="Udieresismacron" unicode="&#x1d5;" horiz-adv-x="314" 
d="M258 817h-200v19h200v-19zM120 750h-24v43h24v-43zM221 750h-24v43h24v-43zM266 700v-618q0 -88 -98 -88h-20q-98 0 -98 88v618h20v-594q0 -55 16.5 -74.5t61.5 -19.5h20q46 0 62 19.5t16 74.5v594h20z" />
    <glyph glyph-name="udieresismacron" unicode="&#x1d6;" horiz-adv-x="275" 
d="M237 617h-200v19h200v-19zM99 544h-24v43h24v-43zM200 544h-25v43h25v-43zM238 0h-16l-2 29q-19 -34 -74 -34h-15q-45 0 -69.5 21.5t-24.5 66.5v417h20v-393q0 -55 15.5 -74.5t57.5 -19.5h15q29 0 44 8.5t22 28.5t7 57v393h20v-500z" />
    <glyph glyph-name="Udieresisacute" unicode="&#x1d7;" horiz-adv-x="314" 
d="M154 817h-15l14 82h24zM120 750h-24v43h24v-43zM221 750h-24v43h24v-43zM266 700v-618q0 -88 -98 -88h-20q-98 0 -98 88v618h20v-594q0 -55 16.5 -74.5t61.5 -19.5h20q46 0 62 19.5t16 74.5v594h20z" />
    <glyph glyph-name="udieresisacute" unicode="&#x1d8;" horiz-adv-x="275" 
d="M133 617h-15l14 82h24zM99 544h-24v43h24v-43zM200 544h-25v43h25v-43zM238 0h-16l-2 29q-19 -34 -74 -34h-15q-45 0 -69.5 21.5t-24.5 66.5v417h20v-393q0 -55 15.5 -74.5t57.5 -19.5h15q42 0 57.5 19.5t15.5 74.5v393h20v-500z" />
    <glyph glyph-name="Udieresiscaron" unicode="&#x1d9;" horiz-adv-x="314" 
d="M172 817h-28l-62 82h25l51 -67l52 67h24zM120 750h-24v43h24v-43zM221 750h-24v43h24v-43zM266 700v-618q0 -88 -98 -88h-20q-98 0 -98 88v618h20v-594q0 -55 16.5 -74.5t61.5 -19.5h20q46 0 62 19.5t16 74.5v594h20z" />
    <glyph glyph-name="udieresiscaron" unicode="&#x1da;" horiz-adv-x="275" 
d="M151 617h-28l-62 82h25l51 -67l51 67h25zM99 544h-24v43h24v-43zM200 544h-25v43h25v-43zM238 0h-16l-2 29q-19 -34 -74 -34h-15q-45 0 -69.5 21.5t-24.5 66.5v417h20v-393q0 -55 15.5 -74.5t57.5 -19.5h15q42 0 57.5 19.5t15.5 74.5v393h20v-500z" />
    <glyph glyph-name="Udieresisgrave" unicode="&#x1db;" horiz-adv-x="314" 
d="M177 817h-14l-23 82h24zM120 750h-24v43h24v-43zM221 750h-24v43h24v-43zM266 700v-618q0 -88 -98 -88h-20q-98 0 -98 88v618h20v-594q0 -55 16.5 -74.5t61.5 -19.5h20q46 0 62 19.5t16 74.5v594h20z" />
    <glyph glyph-name="udieresisgrave" unicode="&#x1dc;" horiz-adv-x="275" 
d="M156 617h-15l-23 82h24zM99 544h-24v43h24v-43zM200 544h-25v43h25v-43zM238 0h-16l-2 29q-19 -34 -74 -34h-15q-45 0 -69.5 21.5t-24.5 66.5v417h20v-393q0 -55 15.5 -74.5t57.5 -19.5h15q42 0 57.5 19.5t15.5 74.5v393h20v-500z" />
    <glyph glyph-name="Scommaaccent" unicode="&#x218;" horiz-adv-x="312" 
d="M148 706h15q98 0 98 -88v-84h-20v60q0 55 -16 74.5t-62 19.5h-15q-45 0 -61.5 -19.5t-16.5 -74.5v-42q1 -60 39 -106l118 -138q39 -46 39 -106v-120q0 -88 -97 -88h-26q-98 0 -98 88v84h20v-60q0 -55 16.5 -74.5t61.5 -19.5h26q45 0 61 19.5t16 74.5v90q0 60 -39 106
l-118 138q-38 46 -39 106v72q0 88 98 88zM157 -120h-15l14 82h24z" />
    <glyph glyph-name="scommaaccent" unicode="&#x219;" horiz-adv-x="270" 
d="M130 505h10q44 0 68.5 -21.5t24.5 -66.5v-59h-20v35q0 55 -15.5 74.5t-57.5 19.5h-10q-39 0 -56 -16.5t-17 -58.5v-19q0 -36 29 -70l123 -145q29 -35 29 -79v-17q0 -45 -24.5 -66.5t-68.5 -21.5h-20q-29 0 -49.5 9t-32 29t-11.5 50v59h20v-35q0 -55 15.5 -74.5
t57.5 -19.5h20q39 0 56 16.5t17 58.5v19q0 34 -29 68l-123 145q-29 34 -29 79v19q0 45 24.5 66.5t68.5 21.5zM131 -120h-15l14 82h24z" />
    <glyph glyph-name="uni021A" unicode="&#x21a;" horiz-adv-x="256" 
d="M231 681h-93v-681h-20v681h-93v19h206v-19zM124 -120h-15l14 82h24z" />
    <glyph glyph-name="uni021B" unicode="&#x21b;" horiz-adv-x="187" 
d="M79 500h73v-19h-73v-375q0 -55 15.5 -74.5t56.5 -19.5h15v-18h-14q-44 0 -68.5 21.5t-24.5 66.5v399h-39v19h39v131h20v-131zM99 -120h-15l14 82h24z" />
    <glyph glyph-name="circumflex" unicode="&#x2c6;" horiz-adv-x="252" 
d="M202 618h-24l-52 68l-51 -68h-25l62 82h28z" />
    <glyph glyph-name="caron" unicode="&#x2c7;" horiz-adv-x="252" 
d="M140 618h-28l-62 82h25l51 -67l52 67h24z" />
    <glyph glyph-name="breve" unicode="&#x2d8;" horiz-adv-x="241" 
d="M191 700v-34q0 -22 -17 -35t-46 -13h-15q-29 0 -46 13t-17 35v34h21v-10q0 -31 7.5 -42t34.5 -11h15q28 0 35.5 11t7.5 42v10h20z" />
    <glyph glyph-name="dotaccent" unicode="&#x2d9;" horiz-adv-x="125" 
d="M75 618h-25v43h25v-43z" />
    <glyph glyph-name="ring" unicode="&#x2da;" horiz-adv-x="227" 
d="M100 705h25q52 0 52 -36v-43q0 -37 -52 -37h-25q-50 0 -50 37v43q0 36 50 36zM125 685h-25q-20 0 -24.5 -6.5t-4.5 -28.5v-5q0 -10 0.5 -14.5t2 -9.5t4.5 -7t8.5 -3.5t13.5 -1.5h25q20 0 25.5 7t5.5 29v5q0 22 -5.5 28.5t-25.5 6.5z" />
    <glyph glyph-name="ogonek" unicode="&#x2db;" horiz-adv-x="204" 
d="M121 0l-19 -23q-50 -65 -23 -102q17 -21 64 -21h10v-19h-20q-58 0 -77 43q-20 48 29 103l16 19h20z" />
    <glyph glyph-name="tilde" unicode="&#x2dc;" horiz-adv-x="317" 
d="M267 683v-42q0 -29 -26 -36q-22 -5 -49 13l-69 48q-34 23 -46 14q-6 -5 -6 -19v-43h-21v42q0 25 20 34q23 11 55 -10l69 -49q25 -17 38 -16q14 1 14 22v42h21z" />
    <glyph glyph-name="hungarumlaut" unicode="&#x2dd;" horiz-adv-x="200" 
d="M65 618h-15l14 82h24zM126 618h-14l13 82h24z" />
    <glyph glyph-name="commaaccentcomb" unicode="&#x326;" horiz-adv-x="0" 
d="M65 -180h-15l14 82h24z" />
    <glyph glyph-name="uni0401" unicode="&#x401;" horiz-adv-x="282" 
d="M115 750h-24v43h24v-43zM216 750h-24v43h24v-43zM256 681h-186v-291h171v-19h-171v-352h186v-19h-206v700h206v-19z" />
    <glyph glyph-name="uni0410" unicode="&#x410;" horiz-adv-x="276" 
d="M251 0h-18l-36 255h-118l-36 -255h-18l98 700h30zM137 679l-16 -119l-40 -286h113l-39 286l-16 119h-2z" />
    <glyph glyph-name="uni0411" unicode="&#x411;" horiz-adv-x="291" 
d="M256 681h-186v-287h98q98 0 98 -88v-218q0 -88 -98 -88h-118v700h206v-19zM70 376v-358h98q46 0 62 19.5t16 74.5v170q0 55 -16 74.5t-62 19.5h-98z" />
    <glyph glyph-name="uni0412" unicode="&#x412;" horiz-adv-x="291" 
d="M50 700h113q98 0 98 -88v-148q0 -57 -42 -78q47 -19 47 -79v-219q0 -88 -98 -88h-118v700zM70 682v-288h100q41 1 56 21t15 73v100q0 55 -16 74.5t-62 19.5h-93zM70 376v-358h98q46 0 62 19.5t16 74.5v170q0 55 -16 74.5t-62 19.5h-98z" />
    <glyph glyph-name="uni0413" unicode="&#x413;" horiz-adv-x="282" 
d="M256 681h-186v-681h-20v700h206v-19z" />
    <glyph glyph-name="uni0414" unicode="&#x414;" horiz-adv-x="331" 
d="M283 19h23v-147h-20v128h-241v-128h-20v142v5h16q22 3 30.5 23t10.5 70l25 588h176v-681zM125 681l-25 -599q-2 -42 -21 -63h184v662h-138z" />
    <glyph glyph-name="uni0415" unicode="&#x415;" horiz-adv-x="282" 
d="M256 681h-186v-291h171v-19h-171v-352h186v-19h-206v700h206v-19z" />
    <glyph glyph-name="uni0416" unicode="&#x416;" horiz-adv-x="422" 
d="M295 371l102 -371h-19l-99 361h-58v-361h-20v361h-58l-99 -361h-19l102 371l-96 329h19l93 -320h58v320h20v-320h58l93 320h19z" />
    <glyph glyph-name="uni0417" unicode="&#x417;" horiz-adv-x="271" 
d="M123 706h20q98 0 98 -88v-154q0 -57 -42 -78q47 -19 47 -79v-225q0 -88 -98 -88h-25q-98 0 -98 88v64h20v-40q0 -38 7 -57.5t23.5 -28t47.5 -8.5h25q46 0 62 19.5t16 74.5v176q0 55 -16 74.5t-62 19.5h-72v18h74q41 1 56 21t15 73v106q0 37 -7 57t-23.5 28.5t-47.5 8.5
h-20q-46 0 -62 -19.5t-16 -74.5v-40h-20v64q0 88 98 88z" />
    <glyph glyph-name="uni0418" unicode="&#x418;" horiz-adv-x="310" 
d="M263 0h-19v682h-2l-159 -682h-36v700h20l1 -682l160 682h35v-700z" />
    <glyph glyph-name="uni0419" unicode="&#x419;" horiz-adv-x="310" 
d="M226 832v-34q0 -22 -17 -34.5t-46 -12.5h-15q-29 0 -46 12.5t-17 34.5v34h21v-10q0 -21 2.5 -31.5t11.5 -16t28 -5.5h15q28 0 35.5 11t7.5 42v10h20zM263 0h-19v682h-2l-159 -682h-36v700h20l1 -682l160 682h35v-700z" />
    <glyph glyph-name="uni041A" unicode="&#x41a;" horiz-adv-x="292" 
d="M155 371l112 -371h-20l-108 361h-69v-361h-20v700h20v-320h69l103 320h19z" />
    <glyph glyph-name="uni041B" unicode="&#x41b;" horiz-adv-x="331" 
d="M281 0h-20v681h-139l-25 -604q-3 -83 -69 -83h-3v18h4q28 0 38 19.5t12 74.5l25 594h177v-700z" />
    <glyph glyph-name="uni041C" unicode="&#x41c;" horiz-adv-x="402" 
d="M351 0h-19v671h-2l-113 -671h-35l-113 671h-2v-671h-20v700h35l117 -688h2l116 688h34v-700z" />
    <glyph glyph-name="uni041D" unicode="&#x41d;" horiz-adv-x="317" 
d="M266 0h-20v371h-176v-371h-20v700h20v-310h176v310h20v-700z" />
    <glyph glyph-name="uni041E" unicode="&#x41e;" horiz-adv-x="307" 
d="M143 706h20q98 0 98 -88v-536q0 -88 -98 -88h-20q-98 0 -98 88v536q0 88 98 88zM163 688h-20q-45 0 -61.5 -19.5t-16.5 -74.5v-488q0 -55 16.5 -74.5t61.5 -19.5h20q31 0 47.5 8.5t23.5 28t7 57.5v488q0 55 -16 74.5t-62 19.5z" />
    <glyph glyph-name="uni041F" unicode="&#x41f;" horiz-adv-x="317" 
d="M266 0h-20v681h-176v-681h-20v700h216v-700z" />
    <glyph glyph-name="uni0420" unicode="&#x420;" horiz-adv-x="312" 
d="M50 700h118q98 0 98 -88v-172q0 -88 -98 -88h-98v-352h-20v700zM70 682v-311h98q46 0 62 19t16 74v124q0 55 -16 74.5t-62 19.5h-98z" />
    <glyph glyph-name="uni0421" unicode="&#x421;" horiz-adv-x="286" 
d="M143 706h20q98 0 98 -88v-84h-20v60q0 55 -16 74.5t-62 19.5h-20q-31 0 -47.5 -8.5t-23.5 -28.5t-7 -57v-488q0 -55 16.5 -74.5t61.5 -19.5h20q31 0 47.5 8.5t23.5 28t7 57.5v60h20v-84q0 -88 -98 -88h-20q-98 0 -98 88v536q0 88 98 88z" />
    <glyph glyph-name="uni0422" unicode="&#x422;" horiz-adv-x="256" 
d="M231 681h-93v-681h-20v681h-93v19h206v-19z" />
    <glyph glyph-name="uni0423" unicode="&#x423;" 
d="M114 0h-21l31 164l-99 536h19l90 -489l89 489h19z" />
    <glyph glyph-name="uni0424" unicode="&#x424;" horiz-adv-x="441" 
d="M231 637h67q98 0 98 -88v-398q0 -88 -98 -88h-67v-63h-20v63h-67q-99 0 -99 88v398q0 88 99 88h67v63h20v-63zM211 618h-68q-45 0 -61.5 -19t-16.5 -75v-348q0 -56 16.5 -75t61.5 -19h68v536zM231 618v-536h67q46 0 62 19t16 75v348q0 56 -16 75t-62 19h-67z" />
    <glyph glyph-name="uni0425" unicode="&#x425;" 
d="M151 350l91 -350h-19l-89 343l-90 -343h-19l92 352l-86 348h19l84 -340l84 340h19z" />
    <glyph glyph-name="uni0426" unicode="&#x426;" horiz-adv-x="313" 
d="M261 19h27v-147h-20v128h-218v700h20v-681h171v681h20v-681z" />
    <glyph glyph-name="uni0427" unicode="&#x427;" horiz-adv-x="311" 
d="M261 0h-20v311q-21 -31 -77 -31h-21q-98 0 -98 88v332h20v-308q0 -55 16 -74t62 -19h20q46 0 62 19t16 74v308h20v-700z" />
    <glyph glyph-name="uni0428" unicode="&#x428;" horiz-adv-x="411" 
d="M361 0h-311v700h20v-681h126v681h19v-681h126v681h20v-700z" />
    <glyph glyph-name="uni0429" unicode="&#x429;" horiz-adv-x="413" 
d="M361 19h27v-147h-20v128h-318v700h20v-681h125v681h20v-681h126v681h20v-681z" />
    <glyph glyph-name="uni042A" unicode="&#x42a;" horiz-adv-x="337" 
d="M96 394h97q98 0 98 -88v-218q0 -88 -98 -88h-117v681h-51v19h71v-306zM96 376v-358h97q46 0 62 19.5t16 74.5v170q0 55 -16 74.5t-62 19.5h-97z" />
    <glyph glyph-name="uni042B" unicode="&#x42b;" horiz-adv-x="393" 
d="M343 0h-20v700h20v-700zM70 394h98q98 0 98 -88v-218q0 -88 -98 -88h-118v700h20v-306zM70 376v-358h98q46 0 62 19.5t16 74.5v170q0 55 -16 74.5t-62 19.5h-98z" />
    <glyph glyph-name="uni042C" unicode="&#x42c;" horiz-adv-x="312" 
d="M70 394h98q98 0 98 -88v-218q0 -88 -98 -88h-118v700h20v-306zM70 376v-358h98q46 0 62 19.5t16 74.5v170q0 55 -16 74.5t-62 19.5h-98z" />
    <glyph glyph-name="uni042D" unicode="&#x42d;" horiz-adv-x="286" 
d="M123 706h20q98 0 98 -88v-536q0 -88 -98 -88h-20q-98 0 -98 88v64h20v-40q0 -55 16 -74.5t62 -19.5h20q46 0 62 19.5t16 74.5v254h-134v19h134v215q0 55 -16 74.5t-62 19.5h-20q-46 0 -62 -19.5t-16 -74.5v-40h-20v64q0 88 98 88z" />
    <glyph glyph-name="uni042E" unicode="&#x42e;" horiz-adv-x="398" 
d="M235 706h20q98 0 98 -88v-536q0 -88 -98 -88h-20q-98 0 -98 88v289h-67v-371h-20v700h20v-310h67v228q0 88 98 88zM255 688h-20q-31 0 -47.5 -8.5t-23.5 -28.5t-7 -57v-488q0 -37 7 -57t23.5 -28.5t47.5 -8.5h20q46 0 62 19.5t16 74.5v488q0 55 -16 74.5t-62 19.5z" />
    <glyph glyph-name="uni042F" unicode="&#x42f;" horiz-adv-x="291" 
d="M241 0h-20v362h-108q-39 -1 -53.5 -21t-14.5 -72v-269h-20v293q0 58 44 78q-44 20 -44 79v162q0 88 98 88h118v-700zM221 682h-98q-31 0 -47.5 -8.5t-23.5 -28t-7 -57.5v-114q0 -35 6 -54.5t20.5 -28.5t41.5 -11h108v302z" />
    <glyph glyph-name="uni0430" unicode="&#x430;" 
d="M125 505h15q44 0 68.5 -21.5t24.5 -66.5v-417h-16l-2 29q-19 -35 -74 -35h-15q-44 0 -69 21.5t-25 66.5v140q0 45 25 66.5t69 21.5h15q52 0 72 -30v113q0 55 -15.5 74.5t-57.5 19.5h-15q-42 0 -57.5 -19.5t-15.5 -74.5v-25h-20v49q0 45 24.5 66.5t68.5 21.5zM141 292h-16
q-42 0 -57.5 -19.5t-15.5 -74.5v-92q0 -55 15.5 -74.5t57.5 -19.5h16q27 0 41.5 7.5t22 25.5t8.5 50v114q-1 33 -8.5 50.5t-22 25t-41.5 7.5z" />
    <glyph glyph-name="uni0431" unicode="&#x431;" horiz-adv-x="276" 
d="M241 700v-35q0 -45 -24.5 -66.5t-68.5 -21.5h-15q-29 0 -44 -8.5t-22 -28t-7 -57.5v-9q21 31 72 31h16q44 0 68.5 -21.5t24.5 -66.5v-335q0 -45 -24.5 -66.5t-68.5 -21.5h-15q-44 0 -68.5 21.5t-24.5 66.5v426q-2 43 23.5 65t69.5 22h15q42 0 57.5 19.5t15.5 74.5v11h20z
M148 487h-15q-42 0 -57.5 -19.5t-15.5 -74.5v-287q0 -55 15.5 -74.5t57.5 -19.5h15q42 0 57.5 19.5t15.5 74.5v287q0 55 -15.5 74.5t-57.5 19.5z" />
    <glyph glyph-name="uni0432" unicode="&#x432;" horiz-adv-x="276" 
d="M40 500h103q44 0 68.5 -22t24.5 -66v-58q0 -57 -41 -78q46 -19 46 -79v-109q0 -44 -24.5 -66t-68.5 -22h-108v500zM60 482v-198h86q40 1 55 20.5t15 73.5v10q0 55 -15.5 74.5t-57.5 19.5h-83zM60 266v-248h88q42 0 57.5 19.5t15.5 74.5v60q0 55 -15.5 74.5t-57.5 19.5
h-88z" />
    <glyph glyph-name="uni0433" unicode="&#x433;" horiz-adv-x="253" 
d="M233 482h-173v-482h-20v500h193v-18z" />
    <glyph glyph-name="uni0434" unicode="&#x434;" horiz-adv-x="318" 
d="M263 19h22v-147h-20v128h-225v-128h-20v147h16q22 3 29.5 22.5t11.5 70.5l25 388h161v-481zM120 481l-25 -399q-3 -42 -22 -63h170v462h-123z" />
    <glyph glyph-name="uni0435" unicode="&#x435;" 
d="M128 505h15q44 0 68.5 -21.5t24.5 -66.5v-204h-181v-107q0 -55 15.5 -74.5t57.5 -19.5h15q42 0 57.5 19.5t15.5 74.5v35h20v-59q0 -45 -24.5 -66.5t-68.5 -21.5h-15q-29 0 -49.5 9t-32 29t-11.5 50v335q0 45 24.5 66.5t68.5 21.5zM143 487h-15q-42 0 -57.5 -19.5
t-15.5 -74.5v-162h161v162q0 55 -15.5 74.5t-57.5 19.5z" />
    <glyph glyph-name="uni0436" unicode="&#x436;" horiz-adv-x="373" 
d="M263 274l90 -274h-19l-88 266h-50v-266h-20v266h-50l-87 -266h-19l90 274l-85 226h20l81 -216h50v216h20v-216h50l82 216h20z" />
    <glyph glyph-name="uni0437" unicode="&#x437;" 
d="M125 506h10q44 0 68.5 -22t24.5 -66v-64q0 -57 -41 -78q46 -19 46 -79v-115q0 -45 -24.5 -66.5t-68.5 -21.5h-15q-44 0 -68.5 21.5t-24.5 66.5v49h20v-25q0 -28 3.5 -45.5t12.5 -28.5t22.5 -15.5t34.5 -4.5h15q42 0 57.5 19.5t15.5 74.5v66q0 55 -15.5 74.5t-57.5 19.5
h-42v18h40q40 0 55 20t15 74v15q0 38 -7 58t-22 28t-44 8h-10q-42 0 -57.5 -19t-15.5 -75v-24h-20v49q0 44 24.5 66t68.5 22z" />
    <glyph glyph-name="uni0438" unicode="&#x438;" horiz-adv-x="284" 
d="M244 0h-19v486h-2l-145 -486h-35v500h19v-486h2l145 486h35v-500z" />
    <glyph glyph-name="uni0439" unicode="&#x439;" horiz-adv-x="284" 
d="M214 626v-34q0 -22 -16.5 -35t-45.5 -13h-16q-29 0 -45.5 13t-16.5 35v34h20v-10q0 -31 7.5 -42t34.5 -11h16q19 0 28 5.5t11.5 15.5t2.5 32v10h20zM244 0h-19v486h-2l-145 -486h-35v500h19v-486h2l145 486h35v-500z" />
    <glyph glyph-name="uni043A" unicode="&#x43a;" horiz-adv-x="255" 
d="M140 274l95 -274h-19l-92 266h-61v-266h-20v500h20v-216h61l86 216h20z" />
    <glyph glyph-name="uni043B" unicode="&#x43b;" horiz-adv-x="311" 
d="M261 0h-20v481h-124l-25 -404q-5 -83 -71 -83h-1v18h2q29 0 39 19t13 75l25 394h162v-500z" />
    <glyph glyph-name="uni043C" unicode="&#x43c;" horiz-adv-x="375" 
d="M315 235v245l-109 -480h-33l-110 480v-480h-20v500h34l66 -286l45 -205h2l46 205l65 286h34v-500h-20v235z" />
    <glyph glyph-name="uni043D" unicode="&#x43d;" horiz-adv-x="284" 
d="M244 0h-20v266h-161v-266h-20v500h20v-216h161v216h20v-500z" />
    <glyph glyph-name="uni043E" unicode="&#x43e;" horiz-adv-x="271" 
d="M128 505h15q44 0 68.5 -21.5t24.5 -66.5v-335q0 -45 -24.5 -66.5t-68.5 -21.5h-15q-29 0 -49.5 9t-32 29t-11.5 50v335q0 45 24.5 66.5t68.5 21.5zM143 487h-15q-42 0 -57.5 -19.5t-15.5 -74.5v-287q0 -55 15.5 -74.5t57.5 -19.5h15q42 0 57.5 19.5t15.5 74.5v287
q0 55 -15.5 74.5t-57.5 19.5z" />
    <glyph glyph-name="uni043F" unicode="&#x43f;" horiz-adv-x="284" 
d="M244 0h-20v482h-161v-482h-20v500h201v-500z" />
    <glyph glyph-name="uni0440" unicode="&#x440;" horiz-adv-x="279" 
d="M135 506h15q45 0 69.5 -21.5t24.5 -66.5v-335q0 -45 -24.5 -66.5t-69.5 -21.5h-15q-52 0 -72 31v-189h-20v663h16l2 -29q19 35 74 35zM151 488h-15q-40 0 -55.5 -17.5t-17.5 -65.5v-309q2 -48 17.5 -65.5t55.5 -17.5h15q42 0 57.5 19.5t15.5 74.5v287q0 37 -7 57
t-22.5 28.5t-43.5 8.5z" />
    <glyph glyph-name="uni0441" unicode="&#x441;" 
d="M128 505h15q29 0 49.5 -9t32 -29t11.5 -50v-59h-20v35q0 55 -15.5 74.5t-57.5 19.5h-15q-42 0 -57.5 -19.5t-15.5 -74.5v-287q0 -55 15.5 -74.5t57.5 -19.5h15q42 0 57.5 19.5t15.5 74.5v35h20v-59q0 -45 -24.5 -66.5t-68.5 -21.5h-15q-29 0 -49.5 9t-32 29t-11.5 50v335
q0 45 24.5 66.5t68.5 21.5z" />
    <glyph glyph-name="uni0442" unicode="&#x442;" horiz-adv-x="237" 
d="M217 482h-89v-482h-20v482h-88v18h197v-18z" />
    <glyph glyph-name="uni0443" unicode="&#x443;" horiz-adv-x="232" 
d="M98 -163h-19l28 163l-87 500h19l77 -449l77 449h19z" />
    <glyph glyph-name="uni0444" unicode="&#x444;" horiz-adv-x="452" 
d="M236 700v-225q20 31 72 31h15q44 0 68.5 -21.5t24.5 -66.5v-335q0 -45 -24.5 -66.5t-68.5 -21.5h-15q-53 0 -72 31v-226h-20v226q-20 -31 -72 -31h-15q-45 0 -69.5 21.5t-24.5 66.5v335q0 45 24.5 66.5t69.5 21.5h15q52 0 72 -32v226h20zM143 488h-15q-42 0 -57.5 -19.5
t-15.5 -74.5v-287q0 -55 15.5 -74.5t57.5 -19.5h15q42 0 57.5 19.5t15.5 74.5v287q0 28 -3.5 45.5t-12.5 28.5t-22 15.5t-35 4.5zM323 488h-15q-27 0 -42 -7.5t-22 -25.5t-8 -50v-309q1 -32 8 -50t22 -25.5t42 -7.5h15q42 0 57.5 19.5t15.5 74.5v287q0 37 -7 57t-22 28.5
t-44 8.5z" />
    <glyph glyph-name="uni0445" unicode="&#x445;" horiz-adv-x="232" 
d="M132 255l80 -255h-19l-77 244l-77 -244h-19l80 257l-75 243h19l72 -232l72 232h19z" />
    <glyph glyph-name="uni0446" unicode="&#x446;" horiz-adv-x="300" 
d="M241 18h27v-146h-20v128h-208v500h20v-482h161v482h20v-482z" />
    <glyph glyph-name="uni0447" unicode="&#x447;" horiz-adv-x="273" 
d="M233 0h-20v216q-20 -30 -72 -30h-15q-45 0 -69.5 21.5t-24.5 65.5v227h20v-202q0 -55 15.5 -74.5t57.5 -19.5h15q42 0 57.5 19.5t15.5 74.5v202h20v-500z" />
    <glyph glyph-name="uni0448" unicode="&#x448;" horiz-adv-x="394" 
d="M354 0h-311v500h20v-482h125v482h20v-482h125v482h21v-500z" />
    <glyph glyph-name="uni0449" unicode="&#x449;" horiz-adv-x="410" 
d="M350 18h28v-146h-20v128h-318v500h20v-482h125v482h20v-482h125v482h20v-482z" />
    <glyph glyph-name="uni044A" unicode="&#x44a;" horiz-adv-x="309" 
d="M93 284h87q44 0 69 -21.5t25 -66.5v-108q0 -44 -24.5 -66t-68.5 -22h-108v481h-41v19h61v-216zM93 266v-248h88q42 0 57.5 19.5t15.5 74.5v60q0 55 -15.5 74.5t-57.5 19.5h-88z" />
    <glyph glyph-name="uni044B" unicode="&#x44b;" horiz-adv-x="356" 
d="M63 284h87q45 0 69.5 -21.5t24.5 -66.5v-108q0 -44 -24.5 -66t-68.5 -22h-108v500h20v-216zM321 0h-20v500h20v-500zM63 266v-248h88q42 0 57.5 19.5t15.5 74.5v60q0 37 -7 57t-22 28.5t-44 8.5h-88z" />
    <glyph glyph-name="uni044C" unicode="&#x44c;" horiz-adv-x="279" 
d="M63 284h87q45 0 69.5 -21.5t24.5 -66.5v-108q0 -44 -24.5 -66t-68.5 -22h-108v500h20v-216zM63 266v-248h88q42 0 57.5 19.5t15.5 74.5v60q0 55 -15.5 74.5t-57.5 19.5h-88z" />
    <glyph glyph-name="uni044D" unicode="&#x44d;" 
d="M32 368v49q0 45 24.5 66.5t68.5 21.5h15q22 0 38.5 -5t29 -16t19 -27.5t6.5 -39.5v-335q0 -45 -24.5 -66.5t-68.5 -21.5h-15q-44 0 -68.5 21.5t-24.5 66.5v49h20v-25q0 -55 15.5 -74.5t57.5 -19.5h15q42 0 57.5 19.5t15.5 74.5v160h-113v18h113v109q0 55 -15.5 74.5
t-57.5 19.5h-15q-42 0 -57.5 -19.5t-15.5 -74.5v-25h-20z" />
    <glyph glyph-name="uni044E" unicode="&#x44e;" horiz-adv-x="389" 
d="M237 505h15q44 0 68.5 -21.5t24.5 -66.5v-335q0 -45 -24.5 -66.5t-68.5 -21.5h-15q-44 0 -68 21.5t-24 66.5v184h-59v-266h-20v500h20v-216h59v133q0 45 24 66.5t68 21.5zM252 487h-15q-28 0 -43.5 -8.5t-22 -28.5t-6.5 -57v-287q0 -55 15 -74.5t57 -19.5h15
q42 0 57.5 19.5t15.5 74.5v287q0 55 -15.5 74.5t-57.5 19.5z" />
    <glyph glyph-name="uni044F" unicode="&#x44f;" horiz-adv-x="276" 
d="M236 0h-20v256h-88q-42 0 -57.5 -19.5t-15.5 -74.5v-162h-20v186q0 59 43 79q-43 20 -43 78v69q0 44 24.5 66t68.5 22h108v-500zM216 482h-88q-42 0 -57.5 -19.5t-15.5 -74.5v-20q0 -54 15 -74t56 -20h90v208z" />
    <glyph glyph-name="uni0451" unicode="&#x451;" 
d="M98 544h-24v43h24v-43zM199 544h-25v43h25v-43zM128 505h15q44 0 68.5 -21.5t24.5 -66.5v-204h-181v-107q0 -55 15.5 -74.5t57.5 -19.5h15q42 0 57.5 19.5t15.5 74.5v35h20v-59q0 -45 -24.5 -66.5t-68.5 -21.5h-15q-44 0 -68.5 21.5t-24.5 66.5v335q0 45 24.5 66.5
t68.5 21.5zM143 487h-15q-42 0 -57.5 -19.5t-15.5 -74.5v-162h161v162q0 55 -15.5 74.5t-57.5 19.5z" />
    <glyph glyph-name="Wgrave" unicode="&#x1e80;" horiz-adv-x="463" 
d="M248 750h-14l-23 82h24zM346 0h-31l-42 317l-40 314h-2l-41 -315l-42 -316h-30l-93 700h18l74 -560l15 -117h2l89 677h18l88 -677h2l15 117l74 560h18z" />
    <glyph glyph-name="wgrave" unicode="&#x1e81;" horiz-adv-x="405" 
d="M222 544h-14l-23 82h24zM305 0h-32l-64 398l-5 42h-2l-6 -42l-64 -398h-32l-80 500h18l66 -407l11 -78h2l11 78l66 407h18l65 -407l11 -78h2l12 78l65 407h18z" />
    <glyph glyph-name="Wacute" unicode="&#x1e82;" horiz-adv-x="463" 
d="M225 750h-15l14 82h24zM346 0h-31l-42 317l-40 314h-2l-41 -315l-42 -316h-30l-93 700h18l74 -560l15 -117h2l89 677h18l88 -677h2l15 117l74 560h18z" />
    <glyph glyph-name="wacute" unicode="&#x1e83;" horiz-adv-x="405" 
d="M198 544h-14l13 82h24zM305 0h-32l-64 398l-5 42h-2l-6 -42l-64 -398h-32l-80 500h18l66 -407l11 -78h2l11 78l66 407h18l65 -407l11 -78h2l12 78l65 407h18z" />
    <glyph glyph-name="Wdieresis" unicode="&#x1e84;" horiz-adv-x="463" 
d="M191 750h-24v43h24v-43zM292 750h-25v43h25v-43zM346 0h-31l-42 317l-40 314h-2l-41 -315l-42 -316h-30l-93 700h18l74 -560l15 -117h2l89 677h18l88 -677h2l15 117l74 560h18z" />
    <glyph glyph-name="wdieresis" unicode="&#x1e85;" horiz-adv-x="405" 
d="M165 544h-24v43h24v-43zM266 544h-25v43h25v-43zM305 0h-32l-64 398l-5 42h-2l-6 -42l-64 -398h-32l-80 500h18l66 -407l11 -78h2l11 78l66 407h18l65 -407l11 -78h2l12 78l65 407h18z" />
    <glyph glyph-name="Ygrave" unicode="&#x1ef2;" horiz-adv-x="266" 
d="M154 750h-15l-23 82h24zM144 264v-264h-21v262l-98 438h18l90 -400l89 400h18z" />
    <glyph glyph-name="ygrave" unicode="&#x1ef3;" horiz-adv-x="232" 
d="M134 544h-14l-23 82h24zM98 -163h-19l28 163l-87 500h19l77 -449l77 449h19z" />
    <glyph glyph-name="endash" unicode="&#x2013;" horiz-adv-x="401" 
d="M350 260h-300v18h300v-18z" />
    <glyph glyph-name="emdash" unicode="&#x2014;" horiz-adv-x="501" 
d="M451 260h-401v18h401v-18z" />
    <glyph glyph-name="quoteleft" unicode="&#x2018;" horiz-adv-x="138" 
d="M65 700l23 -85h-24l-14 85h15z" />
    <glyph glyph-name="quoteright" unicode="&#x2019;" horiz-adv-x="138" 
d="M65 615h-15l14 85h24z" />
    <glyph glyph-name="quotesinglbase" unicode="&#x201a;" horiz-adv-x="138" 
d="M65 -42h-15l14 84h24z" />
    <glyph glyph-name="quotedblleft" unicode="&#x201c;" horiz-adv-x="190" 
d="M64 615l-14 85h15l23 -85h-24zM115 615l-14 85h15l23 -85h-24z" />
    <glyph glyph-name="quotedblright" unicode="&#x201d;" horiz-adv-x="190" 
d="M65 615h-15l14 85h24zM116 615h-15l14 85h24z" />
    <glyph glyph-name="quotedblbase" unicode="&#x201e;" horiz-adv-x="190" 
d="M65 -42h-15l14 84h24zM116 -42h-15l14 84h24z" />
    <glyph glyph-name="dagger" unicode="&#x2020;" horiz-adv-x="309" 
d="M164 499h94v-18h-94v-541h-20v541h-94v18h94v201h20v-201z" />
    <glyph glyph-name="daggerdbl" unicode="&#x2021;" horiz-adv-x="309" 
d="M164 499h94v-18h-94v-322h94v-18h-94v-201h-20v201h-94v18h94v322h-94v18h94v201h20v-201z" />
    <glyph glyph-name="bullet" unicode="&#x2022;" horiz-adv-x="318" 
d="M158.5 420q45.5 0 77 -31.5t31.5 -76.5q0 -46 -31.5 -77.5t-77 -31.5t-77 31.5t-31.5 77.5q0 45 31.5 76.5t77 31.5z" />
    <glyph glyph-name="ellipsis" unicode="&#x2026;" horiz-adv-x="313" 
d="M74 0h-24v42h24v-42zM168 0h-24v42h24v-42zM263 0h-24v42h24v-42z" />
    <glyph glyph-name="perthousand" unicode="&#x2030;" horiz-adv-x="640" 
d="M106 706h8q56 0 56 -53v-200q0 -52 -56 -52h-8q-56 0 -56 52v200q0 53 56 53zM76 0h-20l337 700h20zM115 687h-9q-19 0 -27 -10.5t-8 -37.5v-171q0 -18 4 -28.5t11 -15t20 -4.5h9q18 0 26 10.5t8 37.5v171q0 27 -8 37.5t-26 10.5zM354 299h9q56 0 56 -52v-200
q0 -53 -56 -53h-9q-55 0 -55 53v200q0 52 55 52zM526 299h8q56 0 56 -52v-200q0 -53 -56 -53h-8q-56 0 -56 53v200q0 52 56 52zM363 280h-9q-18 0 -26 -10.5t-8 -37.5v-171q0 -18 3.5 -28.5t11 -15t19.5 -4.5h9q19 0 27 10.5t8 37.5v171q0 27 -8 37.5t-27 10.5zM535 280h-10
q-18 0 -26 -10.5t-8 -37.5v-171q0 -18 3.5 -28.5t11 -15t19.5 -4.5h10q18 0 26 10.5t8 37.5v171q0 27 -8 37.5t-26 10.5z" />
    <glyph glyph-name="guilsinglleft" unicode="&#x2039;" horiz-adv-x="197" 
d="M146 358l-81 -80l81 -80v-23l-96 92v23l96 92v-24z" />
    <glyph glyph-name="guilsinglright" unicode="&#x203a;" horiz-adv-x="197" 
d="M146 290v-23l-96 -92v23l82 80l-82 80v24z" />
    <glyph glyph-name="fraction" unicode="&#x2044;" horiz-adv-x="410" 
d="M71 0h-21l289 700h20z" />
    <glyph glyph-name="Euro" unicode="&#x20ac;" horiz-adv-x="349" 
d="M180 706h20q98 0 98 -88v-64h-20v40q0 55 -16 74.5t-62 19.5h-20q-46 0 -62 -19.5t-16 -74.5v-178h145l-11 -20h-134v-68h95l-11 -20h-84v-202q0 -55 16 -74.5t62 -19.5h20q46 0 62 19.5t16 74.5v40h20v-64q0 -88 -98 -88h-20q-98 0 -98 88v226h-32v20h32v68h-32v20h32
v202q0 88 98 88z" />
    <glyph glyph-name="trademark" unicode="&#x2122;" horiz-adv-x="446" 
d="M178 681h-54v-386h-20v386h-54v19h128v-19zM396 295h-20v383h-2l-57 -383h-36l-58 383h-1v-383h-20v405h36l29 -192l31 -206h2l30 206l29 192h37v-405z" />
    <glyph glyph-name="minus" unicode="&#x2212;" horiz-adv-x="451" 
d="M401 304h-351v18h351v-18z" />
    <glyph glyph-name="approxequal" unicode="&#x2248;" horiz-adv-x="397" 
d="M50 300v35q0 27 16 43q9 9 21 12q16 4 39 -5l151 -62q23 -9 37 -2q12 6 12 32v36h21v-35q0 -28 -18 -44q-8 -7 -19 -8q-17 -2 -35 5l-158 64q-26 11 -37 -4q-9 -12 -8 -31v-36h-22zM50 194v35q0 27 16 43q9 9 21 12q16 4 39 -5l151 -62q23 -9 37 -2q12 6 12 32v36h21v-35
q0 -29 -18 -45q-8 -7 -19 -8q-17 -1 -35 6l-158 64q-26 11 -37 -4q-9 -12 -8 -31v-36h-22z" />
    <glyph glyph-name="notequal" unicode="&#x2260;" horiz-adv-x="450" 
d="M278 438h123v-18h-131l-58 -129h189v-18h-197l-123 -273h-20l123 273h-134v18h142l58 129h-200v18h208l118 262h20z" />
    <glyph glyph-name="lessequal" unicode="&#x2264;" horiz-adv-x="351" 
d="M300 520l-237 -179l237 -178v-24l-250 190v25l250 190v-24zM300 0h-250v18h250v-18z" />
    <glyph glyph-name="greaterequal" unicode="&#x2265;" horiz-adv-x="351" 
d="M300 354v-25l-250 -190v24l238 178l-238 179v24zM300 0h-250v18h250v-18z" />
    <glyph glyph-name="a.ss01" horiz-adv-x="276" 
d="M129 506h15q55 0 74 -35l2 29h16v-500h-21v25q-19 -30 -71 -30h-15q-45 0 -69.5 21.5t-24.5 66.5v335q0 45 24.5 66.5t69.5 21.5zM143 488h-15q-42 0 -57.5 -19.5t-15.5 -74.5v-287q0 -55 15.5 -74.5t57.5 -19.5h15q40 0 55.5 17.5t17.5 65.5v309q-2 48 -17.5 65.5
t-55.5 17.5z" />
    <glyph glyph-name="aacute.ss01" horiz-adv-x="276" 
d="M137 544h-15l14 82h24zM129 506h15q55 0 74 -35l2 29h16v-500h-21v25q-19 -30 -71 -30h-15q-29 0 -49.5 9t-32.5 29t-12 50v335q0 45 24.5 66.5t69.5 21.5zM143 488h-15q-42 0 -57.5 -19.5t-15.5 -74.5v-287q0 -55 15.5 -74.5t57.5 -19.5h15q40 0 55.5 17.5t17.5 65.5
v309q-2 48 -17.5 65.5t-55.5 17.5z" />
    <glyph glyph-name="abreve.ss01" horiz-adv-x="291" 
d="M210 626v-34q0 -22 -16.5 -35t-45.5 -13h-16q-29 0 -45.5 13t-16.5 35v34h20v-10q0 -31 7.5 -42t34.5 -11h16q19 0 28 5.5t11.5 15.5t2.5 32v10h20zM134 506h15q55 0 74 -35l2 29h16v-500h-20v25q-20 -30 -72 -30h-15q-44 0 -69 21.5t-25 66.5v335q0 45 25 66.5t69 21.5z
M148 488h-15q-28 0 -43.5 -8.5t-22.5 -28.5t-7 -57v-287q0 -55 15.5 -74.5t57.5 -19.5h15q40 0 55.5 17.5t17.5 65.5v309q-2 48 -17.5 65.5t-55.5 17.5z" />
    <glyph glyph-name="acaron.ss01" horiz-adv-x="291" 
d="M155 544h-28l-62 82h25l51 -67l51 67h25zM134 506h15q55 0 74 -35l2 29h16v-500h-20v25q-20 -30 -72 -30h-15q-44 0 -69 21.5t-25 66.5v335q0 45 25 66.5t69 21.5zM148 488h-15q-42 0 -57.5 -19.5t-15.5 -74.5v-287q0 -55 15.5 -74.5t57.5 -19.5h15q40 0 55.5 17.5
t17.5 65.5v309q-2 48 -17.5 65.5t-55.5 17.5z" />
    <glyph glyph-name="adieresis.ss01" horiz-adv-x="291" 
d="M102 544h-24v43h24v-43zM203 544h-25v43h25v-43zM134 506h15q55 0 74 -35l2 29h16v-500h-20v25q-20 -30 -72 -30h-15q-44 0 -69 21.5t-25 66.5v335q0 45 25 66.5t69 21.5zM148 488h-15q-42 0 -57.5 -19.5t-15.5 -74.5v-287q0 -55 15.5 -74.5t57.5 -19.5h15
q40 0 55.5 17.5t17.5 65.5v309q-2 48 -17.5 65.5t-55.5 17.5z" />
    <glyph glyph-name="e.ss01" 
d="M128 505h15q44 0 68.5 -21.5t24.5 -66.5v-116q0 -45 -24.5 -66.5t-68.5 -21.5h-88v-107q0 -55 15.5 -74.5t57.5 -19.5h15q42 0 57.5 19.5t15.5 74.5v35h20v-59q0 -45 -24.5 -66.5t-68.5 -21.5h-15q-29 0 -49.5 9t-32 29t-11.5 50v335q0 45 24.5 66.5t68.5 21.5zM143 487
h-15q-29 0 -44 -8.5t-22 -28.5t-7 -57v-162h88q28 0 43.5 8.5t22.5 28.5t7 57v68q0 55 -15.5 74.5t-57.5 19.5z" />
    <glyph glyph-name="edotaccent.ss01" 
d="M147 544h-24v43h24v-43zM128 505h15q44 0 68.5 -21.5t24.5 -66.5v-116q0 -45 -24.5 -66.5t-68.5 -21.5h-88v-107q0 -55 15.5 -74.5t57.5 -19.5h15q42 0 57.5 19.5t15.5 74.5v35h20v-59q0 -45 -24.5 -66.5t-68.5 -21.5h-15q-29 0 -49.5 9t-32 29t-11.5 50v335
q0 45 24.5 66.5t68.5 21.5zM143 487h-15q-29 0 -44 -8.5t-22 -28.5t-7 -57v-162h88q28 0 43.5 8.5t22.5 28.5t7 57v68q0 55 -15.5 74.5t-57.5 19.5z" />
    <glyph glyph-name="egrave.ss01" 
d="M155 544h-14l-24 82h25zM128 505h15q44 0 68.5 -21.5t24.5 -66.5v-116q0 -45 -24.5 -66.5t-68.5 -21.5h-88v-107q0 -55 15.5 -74.5t57.5 -19.5h15q42 0 57.5 19.5t15.5 74.5v35h20v-59q0 -45 -24.5 -66.5t-68.5 -21.5h-15q-29 0 -49.5 9t-32 29t-11.5 50v335
q0 45 24.5 66.5t68.5 21.5zM143 487h-15q-29 0 -44 -8.5t-22 -28.5t-7 -57v-162h88q28 0 43.5 8.5t22.5 28.5t7 57v68q0 55 -15.5 74.5t-57.5 19.5z" />
    <glyph glyph-name="emacron.ss01" horiz-adv-x="269" 
d="M235 544h-200v19h200v-19zM129 505h15q44 0 68.5 -21.5t24.5 -66.5v-116q0 -45 -24.5 -66.5t-68.5 -21.5h-88v-107q0 -55 15.5 -74.5t57.5 -19.5h15q42 0 57.5 19.5t15.5 74.5v35h20v-59q0 -45 -24.5 -66.5t-68.5 -21.5h-15q-44 0 -68.5 21.5t-24.5 66.5v335
q0 45 24.5 66.5t68.5 21.5zM144 487h-15q-42 0 -57.5 -19.5t-15.5 -74.5v-162h88q29 0 44 8.5t22 28.5t7 57v68q0 55 -15.5 74.5t-57.5 19.5z" />
    <glyph glyph-name="eogonek.ss01" 
d="M236 141v-59q0 -64 -51 -82l-19 -23q-50 -65 -23 -102q17 -21 64 -21h10v-19h-20q-58 0 -77 43q-20 48 29 103l12 14q-9 -1 -18 -1h-15q-29 0 -49.5 9t-32 29t-11.5 50v335q0 45 24.5 66.5t68.5 21.5h15q29 0 49.5 -9t32 -29t11.5 -50v-116q0 -45 -24.5 -66.5
t-68.5 -21.5h-88v-107q0 -55 15.5 -74.5t57.5 -19.5h15q42 0 57.5 19.5t15.5 74.5v35h20zM55 231h88q28 0 43.5 8.5t22.5 28.5t7 57v68q0 55 -15.5 74.5t-57.5 19.5h-15q-42 0 -57.5 -19.5t-15.5 -74.5v-162z" />
    <glyph glyph-name="g.ss01" horiz-adv-x="276" 
d="M129 506h15q55 0 74 -35l2 29h16v-575q0 -44 -24.5 -66t-68.5 -22h-15q-44 0 -68.5 22t-24.5 66v34h20v-10q0 -54 15.5 -74t57.5 -20h15q29 0 44 8.5t22 28.5t7 57v77q-20 -31 -72 -31h-15q-44 0 -69 21.5t-25 66.5v335q0 45 25 66.5t69 21.5zM144 488h-16
q-28 0 -43.5 -8.5t-22.5 -28.5t-7 -57v-287q0 -55 15.5 -74.5t57.5 -19.5h16q39 0 55 17.5t17 65.5v309q-1 48 -17 65.5t-55 17.5z" />
    <glyph glyph-name="gbreve.ss01" horiz-adv-x="276" 
d="M206 626v-34q0 -22 -16.5 -35t-45.5 -13h-16q-29 0 -45.5 13t-16.5 35v34h20v-10q0 -31 7.5 -42t34.5 -11h16q19 0 28 5.5t11.5 15.5t2.5 32v10h20zM129 506h15q55 0 74 -35l2 29h16v-575q0 -44 -24.5 -66t-68.5 -22h-15q-44 0 -68.5 22t-24.5 66v34h20v-10
q0 -54 15.5 -74t57.5 -20h15q42 0 57.5 20t15.5 74v77q-20 -31 -72 -31h-15q-44 0 -69 21.5t-25 66.5v335q0 45 25 66.5t69 21.5zM144 488h-16q-28 0 -43.5 -8.5t-22.5 -28.5t-7 -57v-287q0 -55 15.5 -74.5t57.5 -19.5h16q39 0 55 17.5t17 65.5v309q-1 48 -17 65.5t-55 17.5
z" />
    <glyph glyph-name="gcommaaccent.ss01" horiz-adv-x="276" 
d="M129 506h15q55 0 74 -35l2 29h16v-575q0 -44 -24.5 -66t-68.5 -22h-15q-44 0 -68.5 22t-24.5 66v34h20v-10q0 -54 15.5 -74t57.5 -20h15q29 0 44 8.5t22 28.5t7 57v77q-20 -31 -72 -31h-15q-44 0 -69 21.5t-25 66.5v335q0 45 25 66.5t69 21.5zM144 488h-16
q-28 0 -43.5 -8.5t-22.5 -28.5t-7 -57v-287q0 -55 15.5 -74.5t57.5 -19.5h16q39 0 55 17.5t17 65.5v309q-1 48 -17 65.5t-55 17.5zM137 -262h-15l14 82h24z" />
    <glyph glyph-name="gdotaccent.ss01" horiz-adv-x="276" 
d="M148 544h-24v43h24v-43zM129 506h15q55 0 74 -35l2 29h16v-575q0 -44 -24.5 -66t-68.5 -22h-15q-44 0 -68.5 22t-24.5 66v34h20v-10q0 -54 15.5 -74t57.5 -20h15q29 0 44 8.5t22 28.5t7 57v77q-20 -31 -72 -31h-15q-44 0 -69 21.5t-25 66.5v335q0 45 25 66.5t69 21.5z
M144 488h-16q-28 0 -43.5 -8.5t-22.5 -28.5t-7 -57v-287q0 -55 15.5 -74.5t57.5 -19.5h16q39 0 55 17.5t17 65.5v309q-1 48 -17 65.5t-55 17.5z" />
    <glyph glyph-name="y.ss01" horiz-adv-x="276" 
d="M236 500v-575q0 -44 -24.5 -66t-68.5 -22h-15q-44 0 -68.5 22t-24.5 66v34h20v-10q0 -54 15.5 -74t57.5 -20h15q42 0 57.5 20t15.5 74v77q-20 -31 -72 -31h-15q-44 0 -69 21.5t-25 66.5v417h20v-393q0 -55 15.5 -74.5t57.5 -19.5h16q39 0 54.5 17.5t17.5 65.5v404h20z
" />
    <glyph glyph-name="yacute.ss01" horiz-adv-x="276" 
d="M123 544h-14l13 82h24zM236 500v-575q0 -44 -24.5 -66t-68.5 -22h-15q-44 0 -68.5 22t-24.5 66v34h20v-10q0 -54 15.5 -74t57.5 -20h15q42 0 57.5 20t15.5 74v77q-20 -31 -72 -31h-15q-44 0 -69 21.5t-25 66.5v417h20v-393q0 -55 15.5 -74.5t57.5 -19.5h16
q39 0 54.5 17.5t17.5 65.5v404h20z" />
    <glyph glyph-name="ycircumflex.ss01" horiz-adv-x="276" 
d="M212 544h-25l-51 68l-51 -68h-25l62 82h28zM236 500v-575q0 -44 -24.5 -66t-68.5 -22h-15q-44 0 -68.5 22t-24.5 66v34h20v-10q0 -54 15.5 -74t57.5 -20h15q42 0 57.5 20t15.5 74v77q-20 -31 -72 -31h-15q-44 0 -69 21.5t-25 66.5v417h20v-393q0 -55 15.5 -74.5
t57.5 -19.5h16q39 0 54.5 17.5t17.5 65.5v404h20z" />
    <glyph glyph-name="ydieresis.ss01" horiz-adv-x="276" 
d="M95 544h-25v43h25v-43zM196 544h-25v43h25v-43zM236 500v-575q0 -44 -24.5 -66t-68.5 -22h-15q-44 0 -68.5 22t-24.5 66v34h20v-10q0 -54 15.5 -74t57.5 -20h15q42 0 57.5 20t15.5 74v77q-20 -31 -72 -31h-15q-44 0 -69 21.5t-25 66.5v417h20v-393q0 -55 15.5 -74.5
t57.5 -19.5h16q39 0 54.5 17.5t17.5 65.5v404h20z" />
    <glyph glyph-name="ygrave.ss01" horiz-adv-x="276" 
d="M147 544h-15l-23 82h24zM236 500v-575q0 -44 -24.5 -66t-68.5 -22h-15q-44 0 -68.5 22t-24.5 66v34h20v-10q0 -54 15.5 -74t57.5 -20h15q42 0 57.5 20t15.5 74v77q-20 -31 -72 -31h-15q-44 0 -69 21.5t-25 66.5v417h20v-393q0 -55 15.5 -74.5t57.5 -19.5h16
q39 0 54.5 17.5t17.5 65.5v404h20z" />
    <glyph glyph-name="two.dnom" horiz-adv-x="222" 
d="M105 339h15q49 0 49 -44v-56q0 -30 -20 -53l-58 -69q-20 -23 -20 -53v-45h100v-19h-121v67q0 30 20 53l59 69q19 23 19 53v41q0 20 -6.5 28.5t-21.5 8.5h-15q-15 0 -21.5 -8.5t-6.5 -28.5v-20h-21v32q0 44 49 44z" />
    <glyph glyph-name="four.dnom" horiz-adv-x="237" 
d="M171 100h16v-18h-16v-82h-21v82h-100v18l84 238h37v-238zM149 327l-11 -37l-67 -190h79z" />
    <glyph glyph-name="one.numr" horiz-adv-x="139" 
d="M88 362h-20v319h-18v19h38v-338z" />
    <glyph glyph-name="three.numr" horiz-adv-x="219" 
d="M102 700h15q49 0 49 -44v-70q0 -28 -21 -38q23 -10 23 -40v-102q1 -44 -48 -44h-21q-49 0 -49 44v32h22v-20q0 -19 6.5 -27.5t21.5 -8.5h19q10 0 16 3.5t9 11.5t3 21v78q0 15 -3 24.5t-9 13t-15 3.5h-22v20h22q25 0 25 41v46q0 20 -7 28.5t-21 8.5h-15q-15 0 -21.5 -8.5
t-6.5 -28.5v-20h-21v32q0 44 49 44z" />
    </font>
</defs>
</svg>
