<?xml version="1.0" standalone="no"?><!DOCTYPE svg PUBLIC "-//W3C//DTD SVG 1.1//EN" "http://www.w3.org/Graphics/SVG/1.1/DTD/svg11.dtd"><svg t="1586431785049" class="icon" viewBox="0 0 1024 1024" version="1.1" xmlns="http://www.w3.org/2000/svg" p-id="4877" xmlns:xlink="http://www.w3.org/1999/xlink" width="200" height="200"><defs><style type="text/css"></style></defs><path d="M844.8 728.177778c-48.355556 2.844444-103.348148 4.740741-161.185185 5.688889-5.688889 9.481481-13.274074 18.962963-26.548148 26.548148h-13.274074l7.585185-26.548148c-147.911111 2.844444-311.940741 0.948148-433.303704-6.637037-16.118519-0.948148-24.651852-14.222222-29.392593-29.392593-23.703704-85.333333-25.6-172.562963 0-261.688889 4.740741-16.118519 13.274074-28.444444 29.392593-29.392592 120.414815-7.585185 284.444444-8.533333 433.303704-5.688889l-6.637037-24.651852h13.274074c12.325926 7.585185 20.859259 17.066667 25.6 26.548148 58.785185 0.948148 113.777778 2.844444 162.133333 5.688889 23.703704 0.948148 39.822222 33.185185 48.355556 77.748148h-28.444445l1.896297 6.637037c9.481481 42.666667 9.481481 109.985185 0 152.651852l-1.896297 6.637037H893.155556c-8.533333 42.666667-24.651852 74.903704-48.355556 75.851852z m8.533333-307.2h-9.481481c3.792593 16.118519 6.637037 32.237037 10.429629 48.355555h22.755556c-3.792593-19.911111-11.377778-36.977778-23.703704-48.355555z m-157.392592 18.962963c-31.288889 15.17037-66.37037 26.548148-105.244445 36.029629 8.533333 28.444444 12.325926 58.785185 13.274074 89.125926h6.637037v-14.222222c0-2.844444 1.896296-4.740741 4.740741-4.740741s4.740741 1.896296 4.740741 4.740741v39.822222c0 2.844444-1.896296 4.740741-4.740741 4.740741s-4.740741-1.896296-4.740741-4.740741v-16.118518h-6.637037c0 30.340741-4.740741 59.733333-13.274074 87.229629 37.925926 9.481481 73.007407 21.807407 105.244445 36.02963 27.496296-67.318519 27.496296-189.62963 0-257.896296zM215.22963 719.644444c-5.688889-20.859259-12.325926-42.666667-18.014815-63.525925h-10.42963c7.585185 30.340741 14.222222 61.62963 28.444445 63.525925z m0-303.407407c-15.17037 1.896296-21.807407 33.185185-28.444445 63.525926h10.42963c5.688889-20.859259 12.325926-41.718519 18.014815-63.525926z m169.718518 66.37037c-28.444444-15.17037-54.044444-28.444444-78.696296-42.666666-36.02963 61.62963-36.02963 195.318519 0 256.948148 24.651852-13.274074 50.251852-27.496296 78.696296-42.666667-11.377778-46.459259-11.377778-125.155556 0-171.614815z m263.585185 230.4c4.740741-1.896296 9.481481-3.792593 13.274074-4.74074-26.548148-15.17037-57.837037-26.548148-91.022222-36.02963h-51.2l-0.948148 41.718519c43.614815 0 87.22963 0 129.896296-0.948149z m-140.325926-40.77037h-92.918518l-12.325926 37.925926c34.133333 1.896296 68.266667 2.844444 102.4 2.844444l2.844444-40.77037z m-105.244444 1.896296c-31.288889 7.585185-48.355556 18.962963-60.681482 32.237037 16.118519 0.948148 31.288889 1.896296 47.407408 2.844445l13.274074-35.081482z m245.57037-250.311111c-42.666667-0.948148-86.281481-0.948148-128.948148 0l0.948148 41.718519h51.2c33.185185-9.481481 64.474074-20.859259 91.022223-36.02963-4.740741-2.844444-9.481481-3.792593-14.222223-5.688889zM508.207407 464.592593l-2.844444-40.770371-102.4 2.844445 12.325926 37.925926h92.918518z m-106.192592-3.792593L388.740741 427.614815c-16.118519 0.948148-31.288889 1.896296-47.407408 1.896296 15.17037 11.377778 32.237037 22.755556 60.681482 31.288889zM853.333333 715.851852c13.274074-11.377778 19.911111-28.444444 24.651852-48.355556h-22.755555c-3.792593 16.118519-6.637037 32.237037-10.42963 48.355556h8.533333z m41.718519-219.022222h-17.066667c8.533333 41.718519 8.533333 102.4 0 144.118518h16.118519c8.533333-44.562963 8.533333-99.555556 0.948148-144.118518z" fill="#ffffff" p-id="4878"></path></svg>